<?xml version="1.0" encoding="UTF-8" standalone="no"?>
<!DOCTYPE svg PUBLIC "-//W3C//DTD SVG 1.1//EN"
 "http://www.w3.org/Graphics/SVG/1.1/DTD/svg11.dtd">
<!-- Generated by graphviz version 9.0.0 (20230911.1827)
 -->
<!-- Pages: 1 -->
<svg width="1381pt" height="697pt"
 viewBox="0.00 0.00 1381.13 697.00" xmlns="http://www.w3.org/2000/svg" xmlns:xlink="http://www.w3.org/1999/xlink">
<g id="graph0" class="graph" transform="scale(1 1) rotate(0) translate(4 693)">
<polygon fill="white" stroke="none" points="-4,4 -4,-693 1377.13,-693 1377.13,4 -4,4"/>
<g id="clust1" class="cluster">
<title>cluster_628,379,063</title>
<path fill="none" stroke="#8b6914" d="M20,-8C20,-8 1353.13,-8 1353.13,-8 1359.13,-8 1365.13,-14 1365.13,-20 1365.13,-20 1365.13,-669 1365.13,-669 1365.13,-675 1359.13,-681 1353.13,-681 1353.13,-681 20,-681 20,-681 14,-681 8,-675 8,-669 8,-669 8,-20 8,-20 8,-14 14,-8 20,-8"/>
<text text-anchor="start" x="629.94" y="-664.7" font-family="Times,serif" font-size="14.00" fill="#8b6914"> </text>
<text text-anchor="start" x="633.69" y="-664.7" font-family="Times,serif" font-weight="bold" font-size="14.00" fill="#8b6914">To Do Application</text>
<text text-anchor="start" x="739.44" y="-664.7" font-family="Times,serif" font-size="14.00" fill="#8b6914"> </text>
</g>
<g id="clust5" class="cluster">
<title>cluster_routes_628,379,063</title>
<polygon fill="none" stroke="#8b6914" stroke-dasharray="1,5" points="739.61,-412 739.61,-597 824.7,-597 824.7,-412 739.61,-412"/>
<text text-anchor="start" x="760.03" y="-580.7" font-family="Times,serif" font-size="14.00" fill="#8b6914"> </text>
<text text-anchor="start" x="763.78" y="-580.7" font-family="Times,serif" font-style="italic" font-size="14.00" fill="#8b6914">Routes</text>
<text text-anchor="start" x="800.53" y="-580.7" font-family="Times,serif" font-size="14.00" fill="#8b6914"> </text>
</g>
<g id="clust6" class="cluster">
<title>cluster_environments_628,379,063</title>
<polygon fill="none" stroke="#8b6914" stroke-dasharray="1,5" points="16,-380 16,-648 718.11,-648 718.11,-380 16,-380"/>
<text text-anchor="start" x="325.8" y="-631.7" font-family="Times,serif" font-size="14.00" fill="#8b6914"> </text>
<text text-anchor="start" x="329.55" y="-631.7" font-family="Times,serif" font-style="italic" font-size="14.00" fill="#8b6914">Environments</text>
<text text-anchor="start" x="404.55" y="-631.7" font-family="Times,serif" font-size="14.00" fill="#8b6914"> </text>
</g>
<g id="clust2" class="cluster">
<title>cluster_&#45;1,180,511,001</title>
<g id="a_clust2"><a xlink:title="kubernetesdemo/to&#45;do&#45;app&#45;backend">
<polygon fill="none" stroke="#8b1a1a" points="944.45,-180 944.45,-491 1090.29,-491 1090.29,-180 944.45,-180"/>
<text text-anchor="start" x="992.24" y="-472.7" font-family="Times,serif" font-weight="bold" font-size="14.00" fill="#8b1a1a">Backend</text>
<text text-anchor="start" x="953.99" y="-455.95" font-family="Times,serif" font-size="9.00" fill="#8b1a1a">kubernetesdemo/to&#45;do&#45;app&#45;backend</text>
</a>
</g>
</g>
<g id="clust3" class="cluster">
<title>cluster_92,953,157</title>
<g id="a_clust3"><a xlink:title="kubernetesdemo/to&#45;do&#45;app&#45;frontend">
<polygon fill="none" stroke="#8b1a1a" points="944.2,-499 944.2,-648 1091.54,-648 1091.54,-499 944.2,-499"/>
<text text-anchor="start" x="990.87" y="-629.7" font-family="Times,serif" font-weight="bold" font-size="14.00" fill="#8b1a1a">Frontend</text>
<text text-anchor="start" x="954.12" y="-612.95" font-family="Times,serif" font-size="9.00" fill="#8b1a1a">kubernetesdemo/to&#45;do&#45;app&#45;frontend</text>
</a>
</g>
</g>
<g id="clust4" class="cluster">
<title>cluster_&#45;1,880,334,849</title>
<g id="a_clust4"><a xlink:title="unspecified">
<polygon fill="none" stroke="#8b1a1a" points="1193.29,-16 1193.29,-381 1357.13,-381 1357.13,-16 1193.29,-16"/>
<text text-anchor="start" x="1248.58" y="-362.7" font-family="Times,serif" font-weight="bold" font-size="14.00" fill="#8b1a1a">Database</text>
<text text-anchor="start" x="1254.96" y="-345.95" font-family="Times,serif" font-size="9.00" fill="#8b1a1a">unspecified</text>
</a>
</g>
</g>
<!-- &#45;232,153,749 -->
<g id="node1" class="node">
<title>&#45;232,153,749</title>
<g id="a_node1"><a xlink:title="Variable">
<polygon fill="none" stroke="#8b6914" points="1063.91,-386 970.82,-386 970.82,-350 1063.91,-350 1063.91,-386"/>
<text text-anchor="middle" x="1017.37" y="-364.5" font-family="Arial" font-size="10.00">DB_USERNAME</text>
</a>
</g>
</g>
<!-- 1,232,649,399 -->
<g id="node2" class="node">
<title>1,232,649,399</title>
<g id="a_node2"><a xlink:title="Variable">
<polygon fill="none" stroke="#8b6914" points="1064.29,-224 970.45,-224 970.45,-188 1064.29,-188 1064.29,-224"/>
<text text-anchor="middle" x="1017.37" y="-202.5" font-family="Arial" font-size="10.00">DB_PASSWORD</text>
</a>
</g>
</g>
<!-- &#45;622,205,693 -->
<g id="node3" class="node">
<title>&#45;622,205,693</title>
<g id="a_node3"><a xlink:title="Variable">
<polygon fill="none" stroke="#8b6914" points="1048.91,-332 985.82,-332 985.82,-296 1048.91,-296 1048.91,-332"/>
<text text-anchor="middle" x="1017.37" y="-310.5" font-family="Arial" font-size="10.00">DB_HOST</text>
</a>
</g>
</g>
<!-- 910,988,115 -->
<g id="node12" class="node">
<title>910,988,115</title>
<g id="a_node12"><a xlink:title="Port">
<ellipse fill="none" stroke="#8b6914" cx="1275.21" cy="-312" rx="18" ry="18"/>
<text text-anchor="middle" x="1275.21" y="-308.5" font-family="Arial" font-size="10.00">3306</text>
</a>
</g>
</g>
<!-- &#45;622,205,693&#45;&gt;910,988,115 -->
<g id="edge10" class="edge">
<title>&#45;622,205,693&#45;&gt;910,988,115</title>
<path fill="none" stroke="grey" stroke-dasharray="5,2" d="M1060.39,-313.67C1096.35,-313.39 1149.16,-312.98 1193.29,-312.63"/>
<polygon fill="grey" stroke="grey" points="1050.45,-313.75 1060.41,-309.17 1054.23,-313.72 1060.45,-313.67 1060.45,-313.67 1060.45,-313.67 1054.23,-313.72 1060.48,-318.17 1050.45,-313.75"/>
<text text-anchor="start" x="1117.29" y="-316.85" font-family="Arial" font-size="12.00"> </text>
<text text-anchor="start" x="1120.29" y="-316.85" font-family="Arial" font-style="italic" font-size="12.00" fill="grey">Host Name</text>
<text text-anchor="start" x="1180.29" y="-316.85" font-family="Arial" font-size="12.00"> </text>
</g>
<!-- 1,377,257,854 -->
<g id="node4" class="node">
<title>1,377,257,854</title>
<g id="a_node4"><a xlink:title="Variable">
<polygon fill="none" stroke="#8b6914" points="1049.66,-278 985.07,-278 985.07,-242 1049.66,-242 1049.66,-278"/>
<text text-anchor="middle" x="1017.37" y="-256.5" font-family="Arial" font-size="10.00">DB_NAME</text>
</a>
</g>
</g>
<!-- 708,135,904 -->
<g id="node5" class="node">
<title>708,135,904</title>
<g id="a_node5"><a xlink:title="Port">
<ellipse fill="none" stroke="#8b6914" cx="1017.37" cy="-422" rx="18" ry="18"/>
<text text-anchor="middle" x="1017.37" y="-418.5" font-family="Arial" font-size="10.00">8080</text>
</a>
</g>
</g>
<!-- &#45;418,514,389 -->
<g id="node6" class="node">
<title>&#45;418,514,389</title>
<g id="a_node6"><a xlink:title="Variable">
<polygon fill="none" stroke="#8b6914" points="1057.54,-543 977.2,-543 977.2,-507 1057.54,-507 1057.54,-543"/>
<text text-anchor="middle" x="1017.37" y="-521.5" font-family="Arial" font-size="10.00">SERVER_URI</text>
</a>
</g>
</g>
<!-- &#45;1,096,186,860 -->
<g id="node7" class="node">
<title>&#45;1,096,186,860</title>
<g id="a_node7"><a xlink:title="Port">
<ellipse fill="none" stroke="#8b6914" cx="1017.37" cy="-579" rx="18" ry="18"/>
<text text-anchor="middle" x="1017.37" y="-575.5" font-family="Arial" font-size="10.00">8080</text>
</a>
</g>
</g>
<!-- &#45;705,044,204 -->
<g id="node8" class="node">
<title>&#45;705,044,204</title>
<g id="a_node8"><a xlink:title="Variable">
<polygon fill="none" stroke="#8b6914" points="1349.13,-222 1201.29,-222 1201.29,-186 1349.13,-186 1349.13,-222"/>
<text text-anchor="middle" x="1275.21" y="-200.5" font-family="Arial" font-size="10.00">MYSQL_ROOT_PASSWORD</text>
</a>
</g>
</g>
<!-- 560,713,852 -->
<g id="node9" class="node">
<title>560,713,852</title>
<g id="a_node9"><a xlink:title="Variable">
<polygon fill="none" stroke="#8b6914" points="1317.25,-276 1233.16,-276 1233.16,-240 1317.25,-240 1317.25,-276"/>
<text text-anchor="middle" x="1275.21" y="-254.5" font-family="Arial" font-size="10.00">MYSQL_USER</text>
</a>
</g>
</g>
<!-- &#45;343,445,726 -->
<g id="node10" class="node">
<title>&#45;343,445,726</title>
<g id="a_node10"><a xlink:title="Variable">
<polygon fill="none" stroke="#8b6914" points="1332.25,-114 1218.16,-114 1218.16,-78 1332.25,-78 1332.25,-114"/>
<text text-anchor="middle" x="1275.21" y="-92.5" font-family="Arial" font-size="10.00">MYSQL_PASSWORD</text>
</a>
</g>
</g>
<!-- &#45;976,528,434 -->
<g id="node11" class="node">
<title>&#45;976,528,434</title>
<g id="a_node11"><a xlink:title="Variable">
<polygon fill="none" stroke="#8b6914" points="1329.25,-168 1221.16,-168 1221.16,-132 1329.25,-132 1329.25,-168"/>
<text text-anchor="middle" x="1275.21" y="-146.5" font-family="Arial" font-size="10.00">MYSQL_DATABASE</text>
</a>
</g>
</g>
<!-- &#45;1,336,752,953 -->
<g id="node13" class="node">
<title>&#45;1,336,752,953</title>
<g id="a_node13"><a xlink:title="Port">
<polygon fill="none" stroke="#8b6914" points="1312.38,-60 1309.38,-64 1288.38,-64 1285.38,-60 1238.04,-60 1238.04,-24 1312.38,-24 1312.38,-60"/>
<text text-anchor="middle" x="1275.21" y="-38.5" font-family="Arial" font-size="10.00">/var/lib/mysql</text>
</a>
</g>
</g>
<!-- 75,053,257 -->
<g id="node14" class="node">
<title>75,053,257</title>
<polygon fill="none" stroke="black" points="817.2,-333.96 747.11,-333.96 747.11,-294.04 817.2,-294.04 817.2,-333.96"/>
<text text-anchor="start" x="760.4" y="-319.5" font-family="Arial" font-style="italic" font-size="10.00" fill="#8b6914">Password</text>
<text text-anchor="start" x="757.03" y="-303.5" font-family="Arial" font-style="italic" font-size="10.00">&lt;Encoded&gt;</text>
</g>
<!-- 75,053,257&#45;&gt;&#45;232,153,749 -->
<g id="edge11" class="edge">
<title>75,053,257&#45;&gt;&#45;232,153,749</title>
<path fill="none" stroke="grey" stroke-dasharray="5,2" d="M817.57,-321.97C854.94,-330.62 915.25,-344.59 959.65,-354.87"/>
<polygon fill="grey" stroke="grey" points="969.39,-357.12 958.63,-359.25 965.7,-356.27 959.64,-354.87 959.64,-354.87 959.64,-354.87 965.7,-356.27 960.66,-350.48 969.39,-357.12"/>
</g>
<!-- 75,053,257&#45;&gt;560,713,852 -->
<g id="edge12" class="edge">
<title>75,053,257&#45;&gt;560,713,852</title>
<path fill="none" stroke="grey" stroke-dasharray="5,2" d="M798.49,-293.76C824.36,-261.51 880.14,-199.69 944.2,-176 1005.62,-153.28 1028.06,-159.94 1091.54,-176 1141.38,-188.61 1146.12,-210.57 1193.29,-231 1202.57,-235.02 1212.66,-238.82 1222.46,-242.22"/>
<polygon fill="grey" stroke="grey" points="1231.79,-245.37 1220.87,-246.44 1228.2,-244.16 1222.31,-242.17 1222.31,-242.17 1222.31,-242.17 1228.2,-244.16 1223.75,-237.91 1231.79,-245.37"/>
</g>
<!-- &#45;1,304,451,406 -->
<g id="node15" class="node">
<title>&#45;1,304,451,406</title>
<polygon fill="none" stroke="black" points="817.2,-144.96 747.11,-144.96 747.11,-105.04 817.2,-105.04 817.2,-144.96"/>
<text text-anchor="start" x="760.4" y="-130.5" font-family="Arial" font-style="italic" font-size="10.00" fill="#8b6914">Password</text>
<text text-anchor="start" x="757.03" y="-114.5" font-family="Arial" font-style="italic" font-size="10.00">&lt;Encoded&gt;</text>
</g>
<!-- &#45;1,304,451,406&#45;&gt;1,232,649,399 -->
<g id="edge13" class="edge">
<title>&#45;1,304,451,406&#45;&gt;1,232,649,399</title>
<path fill="none" stroke="grey" stroke-dasharray="5,2" d="M817.52,-138.21C849.99,-150.55 900.16,-169.23 944.2,-184 949.14,-185.66 954.29,-187.33 959.46,-188.97"/>
<polygon fill="grey" stroke="grey" points="968.89,-191.93 958,-193.23 965.28,-190.8 959.34,-188.94 959.34,-188.94 959.34,-188.94 965.28,-190.8 960.69,-184.64 968.89,-191.93"/>
</g>
<!-- &#45;1,304,451,406&#45;&gt;&#45;343,445,726 -->
<g id="edge14" class="edge">
<title>&#45;1,304,451,406&#45;&gt;&#45;343,445,726</title>
<path fill="none" stroke="grey" stroke-dasharray="5,2" d="M803.63,-104.83C812.56,-97.4 823.63,-89.85 835.2,-86 981.98,-37.11 1028.82,-77.53 1183.29,-86 1190.94,-86.42 1198.94,-87.04 1206.88,-87.76"/>
<polygon fill="grey" stroke="grey" points="1216.82,-88.73 1206.43,-92.24 1213.05,-88.36 1206.86,-87.76 1206.86,-87.76 1206.86,-87.76 1213.05,-88.36 1207.3,-83.28 1216.82,-88.73"/>
</g>
<!-- 1,912,524,419 -->
<g id="node16" class="node">
<title>1,912,524,419</title>
<polygon fill="none" stroke="black" points="1052.41,-149.96 982.32,-149.96 982.32,-110.04 1052.41,-110.04 1052.41,-149.96"/>
<text text-anchor="start" x="995.62" y="-135.5" font-family="Arial" font-style="italic" font-size="10.00" fill="#8b6914">Password</text>
<text text-anchor="start" x="992.24" y="-119.5" font-family="Arial" font-style="italic" font-size="10.00">&lt;Encoded&gt;</text>
</g>
<!-- 1,912,524,419&#45;&gt;&#45;705,044,204 -->
<g id="edge15" class="edge">
<title>1,912,524,419&#45;&gt;&#45;705,044,204</title>
<path fill="none" stroke="grey" stroke-dasharray="5,2" d="M1052.84,-130.24C1088.11,-131.98 1143.27,-138.95 1183.29,-164 1189.47,-167.87 1187.35,-172.77 1193.29,-177 1194.82,-178.09 1196.41,-179.14 1198.03,-180.15"/>
<polygon fill="grey" stroke="grey" points="1206.61,-184.91 1195.68,-184 1203.3,-183.08 1197.86,-180.06 1197.86,-180.06 1197.86,-180.06 1203.3,-183.08 1200.05,-176.13 1206.61,-184.91"/>
</g>
<!-- 1,119,408,003 -->
<g id="node17" class="node">
<title>1,119,408,003</title>
<polygon fill="none" stroke="black" points="811.95,-229.96 752.36,-229.96 752.36,-190.04 811.95,-190.04 811.95,-229.96"/>
<text text-anchor="start" x="762.28" y="-215.5" font-family="Arial" font-style="italic" font-size="10.00" fill="#8b6914">Constant</text>
<text text-anchor="start" x="769.78" y="-199.5" font-family="Arial" font-size="10.00" fill="#8b6914">“</text>
<text text-anchor="start" x="772.78" y="-199.5" font-family="Arial" font-size="10.00">todo</text>
<text text-anchor="start" x="791.53" y="-199.5" font-family="Arial" font-size="10.00" fill="#8b6914">”</text>
</g>
<!-- 1,119,408,003&#45;&gt;1,377,257,854 -->
<g id="edge17" class="edge">
<title>1,119,408,003&#45;&gt;1,377,257,854</title>
<path fill="none" stroke="grey" stroke-dasharray="5,2" d="M812.22,-216.23C852.92,-224.96 927.13,-240.87 973.99,-250.91"/>
<polygon fill="grey" stroke="grey" points="983.51,-252.95 972.79,-255.26 979.81,-252.16 973.73,-250.86 973.73,-250.86 973.73,-250.86 979.81,-252.16 974.67,-246.46 983.51,-252.95"/>
</g>
<!-- 1,119,408,003&#45;&gt;&#45;976,528,434 -->
<g id="edge16" class="edge">
<title>1,119,408,003&#45;&gt;&#45;976,528,434</title>
<path fill="none" stroke="grey" stroke-dasharray="5,2" d="M803.86,-189.82C832.58,-163.41 887.39,-118.42 944.2,-101 1006.81,-81.8 1026.62,-92.44 1091.54,-101 1131.81,-106.31 1175.81,-117.93 1210.54,-128.52"/>
<polygon fill="grey" stroke="grey" points="1219.84,-131.4 1208.96,-132.74 1216.23,-130.28 1210.29,-128.44 1210.29,-128.44 1210.29,-128.44 1216.23,-130.28 1211.62,-124.14 1219.84,-131.4"/>
</g>
<!-- &#45;118,480,222 -->
<g id="node18" class="node">
<title>&#45;118,480,222</title>
<g id="a_node18"><a xlink:title="1 Gibibytes">
<path fill="none" stroke="black" d="M1044.37,-48.73C1044.37,-50.53 1032.27,-52 1017.37,-52 1002.47,-52 990.37,-50.53 990.37,-48.73 990.37,-48.73 990.37,-19.27 990.37,-19.27 990.37,-17.47 1002.47,-16 1017.37,-16 1032.27,-16 1044.37,-17.47 1044.37,-19.27 1044.37,-19.27 1044.37,-48.73 1044.37,-48.73"/>
<path fill="none" stroke="black" d="M1044.37,-48.73C1044.37,-46.92 1032.27,-45.45 1017.37,-45.45 1002.47,-45.45 990.37,-46.92 990.37,-48.73"/>
<text text-anchor="middle" x="1017.37" y="-30.5" font-family="Arial" font-size="10.00">1Gi</text>
</a>
</g>
</g>
<!-- &#45;118,480,222&#45;&gt;&#45;1,336,752,953 -->
<g id="edge21" class="edge">
<title>&#45;118,480,222&#45;&gt;&#45;1,336,752,953</title>
<path fill="none" stroke="grey" stroke-dasharray="5,2" d="M1055.79,-35.17C1101.05,-36.59 1177.31,-38.97 1226.68,-40.51"/>
<polygon fill="grey" stroke="grey" points="1046,-34.86 1056.14,-30.68 1049.78,-34.98 1056,-35.18 1056,-35.18 1056,-35.18 1049.78,-34.98 1055.86,-39.67 1046,-34.86"/>
<polygon fill="grey" stroke="grey" points="1236.49,-40.82 1226.35,-45.01 1232.71,-40.7 1226.49,-40.51 1226.49,-40.51 1226.49,-40.51 1232.71,-40.7 1226.64,-36.01 1236.49,-40.82"/>
</g>
<!-- routes_628,379,063 -->
<g id="node19" class="node">
<title>routes_628,379,063</title>
<polygon fill="none" stroke="black" points="809.15,-564 755.15,-564 755.15,-528 809.15,-528 809.15,-564"/>
<text text-anchor="start" x="763.4" y="-543.5" font-family="Arial" font-size="10.00"> </text>
<text text-anchor="start" x="766.4" y="-543.5" font-family="Arial" font-style="italic" font-size="10.00" fill="#104e8b">domain</text>
<text text-anchor="start" x="797.9" y="-543.5" font-family="Arial" font-size="10.00"> </text>
</g>
<!-- &#45;1,126,809,285 -->
<g id="node20" class="node">
<title>&#45;1,126,809,285</title>
<polygon fill="none" stroke="black" points="797.15,-504 755.15,-504 755.15,-480 797.15,-480 809.15,-492 797.15,-504"/>
<text text-anchor="start" x="763.4" y="-489.5" font-family="Arial" font-size="10.00"> </text>
<text text-anchor="start" x="766.4" y="-489.5" font-family="Arial" font-style="italic" font-size="10.00">Default</text>
<text text-anchor="start" x="797.9" y="-489.5" font-family="Arial" font-size="10.00"> </text>
</g>
<!-- &#45;1,126,809,285&#45;&gt;&#45;1,096,186,860 -->
<g id="edge19" class="edge">
<title>&#45;1,126,809,285&#45;&gt;&#45;1,096,186,860</title>
<path fill="none" stroke="black" d="M809.45,-501.81C854.15,-518.48 944.46,-552.17 989.52,-568.98"/>
<polygon fill="black" stroke="black" points="998.81,-572.45 987.87,-573.17 995.27,-571.13 989.44,-568.95 989.44,-568.95 989.44,-568.95 995.27,-571.13 991.01,-564.74 998.81,-572.45"/>
</g>
<!-- 1,023,180,966 -->
<g id="node21" class="node">
<title>1,023,180,966</title>
<polygon fill="none" stroke="black" points="804.7,-450 747.61,-450 747.61,-426 804.7,-426 816.7,-438 804.7,-450"/>
<text text-anchor="start" x="755.53" y="-435.5" font-family="Arial" font-size="10.00"> </text>
<text text-anchor="start" x="758.53" y="-435.5" font-family="Arial" font-size="10.00" fill="#104e8b">api</text>
<text text-anchor="start" x="771.28" y="-435.5" font-family="Arial" font-style="italic" font-size="10.00" fill="#104e8b">.domain</text>
<text text-anchor="start" x="805.78" y="-435.5" font-family="Arial" font-size="10.00"> </text>
</g>
<!-- 1,023,180,966&#45;&gt;708,135,904 -->
<g id="edge20" class="edge">
<title>1,023,180,966&#45;&gt;708,135,904</title>
<path fill="none" stroke="black" d="M817.07,-435.67C863.26,-432.5 945.11,-426.89 988.14,-423.94"/>
<polygon fill="black" stroke="black" points="997.97,-423.26 988.3,-428.44 994.2,-423.52 987.99,-423.95 987.99,-423.95 987.99,-423.95 994.2,-423.52 987.69,-419.46 997.97,-423.26"/>
</g>
<!-- 1,023,180,966&#45;&gt;&#45;418,514,389 -->
<g id="edge18" class="edge">
<title>1,023,180,966&#45;&gt;&#45;418,514,389</title>
<path fill="none" stroke="grey" stroke-dasharray="5,2" d="M817.07,-450.65C856.36,-465.31 921.48,-489.6 966.53,-506.41"/>
<polygon fill="grey" stroke="grey" points="975.82,-509.87 964.87,-510.59 972.27,-508.55 966.45,-506.38 966.45,-506.38 966.45,-506.38 972.27,-508.55 968.02,-502.16 975.82,-509.87"/>
<text text-anchor="start" x="835.2" y="-489.85" font-family="Arial" font-size="12.00"> </text>
<text text-anchor="start" x="838.2" y="-489.85" font-family="Arial" font-style="italic" font-size="12.00" fill="grey">Domain Name</text>
<text text-anchor="start" x="915.45" y="-489.85" font-family="Arial" font-size="12.00"> </text>
</g>
<!-- 901,007,205 -->
<g id="node22" class="node">
<title>901,007,205</title>
<path fill="none" stroke="black" d="M65.63,-511.04C65.63,-511.04 134.97,-511.04 134.97,-511.04 140.97,-511.04 146.97,-517.04 146.97,-523.04 146.97,-523.04 146.97,-602.96 146.97,-602.96 146.97,-608.96 140.97,-614.96 134.97,-614.96 134.97,-614.96 65.63,-614.96 65.63,-614.96 59.63,-614.96 53.63,-608.96 53.63,-602.96 53.63,-602.96 53.63,-523.04 53.63,-523.04 53.63,-517.04 59.63,-511.04 65.63,-511.04"/>
<text text-anchor="start" x="83.05" y="-600.5" font-family="Arial" font-weight="bold" font-size="10.00">LOCAL</text>
<text text-anchor="start" x="88.67" y="-583.5" font-family="Arial" font-size="10.00" fill="#8b6914">Local</text>
<text text-anchor="start" x="74.05" y="-568.5" font-family="Arial" font-style="italic" font-size="10.00">No backups</text>
<text text-anchor="start" x="63.55" y="-552.5" font-family="Arial" font-style="italic" font-size="10.00">Relaxed security</text>
<text text-anchor="start" x="67.3" y="-536.5" font-family="Arial" font-style="italic" font-size="10.00">Cost optimized</text>
<text text-anchor="start" x="81.17" y="-519.5" font-family="Arial" font-size="10.00" fill="#104e8b">todo.test</text>
</g>
<!-- 901,007,205&#45;&gt;routes_628,379,063 -->
<g id="edge1" class="edge">
<title>901,007,205:domain&#45;&gt;routes_628,379,063</title>
<path fill="none" stroke="black" d="M147.37,-566.14C185.03,-568.38 239.2,-571 286.63,-571 286.63,-571 286.63,-571 650.94,-571 682.82,-571 718.32,-563.68 744.19,-556.96"/>
<polygon fill="black" stroke="black" points="753.83,-554.37 745.34,-561.32 750.17,-555.35 744.17,-556.97 744.17,-556.97 744.17,-556.97 750.17,-555.35 743,-552.63 753.83,-554.37"/>
</g>
<!-- 637,244,255 -->
<g id="node23" class="node">
<title>637,244,255</title>
<path fill="none" stroke="black" d="M36,-388.04C36,-388.04 164.59,-388.04 164.59,-388.04 170.59,-388.04 176.59,-394.04 176.59,-400.04 176.59,-400.04 176.59,-479.96 176.59,-479.96 176.59,-485.96 170.59,-491.96 164.59,-491.96 164.59,-491.96 36,-491.96 36,-491.96 30,-491.96 24,-485.96 24,-479.96 24,-479.96 24,-400.04 24,-400.04 24,-394.04 30,-388.04 36,-388.04"/>
<text text-anchor="start" x="89.8" y="-477.5" font-family="Arial" font-weight="bold" font-size="10.00">DEV</text>
<text text-anchor="start" x="71.42" y="-460.5" font-family="Arial" font-size="10.00" fill="#8b6914">Development</text>
<text text-anchor="start" x="74.05" y="-445.5" font-family="Arial" font-style="italic" font-size="10.00">No backups</text>
<text text-anchor="start" x="63.55" y="-429.5" font-family="Arial" font-style="italic" font-size="10.00">Relaxed security</text>
<text text-anchor="start" x="67.3" y="-413.5" font-family="Arial" font-style="italic" font-size="10.00">Cost optimized</text>
<text text-anchor="start" x="33.92" y="-396.5" font-family="Arial" font-size="10.00" fill="#104e8b">todo.dev.internal.example.com</text>
</g>
<!-- 637,244,255&#45;&gt;routes_628,379,063 -->
<g id="edge3" class="edge">
<title>637,244,255:domain&#45;&gt;routes_628,379,063</title>
<path fill="none" stroke="black" d="M177.01,-492.32C194.77,-507.63 193.24,-518.81 213.59,-531 242.46,-548.3 252.98,-551 286.63,-551 286.63,-551 286.63,-551 650.94,-551 682.27,-551 717.82,-549.54 743.85,-548.19"/>
<polygon fill="black" stroke="black" points="753.51,-547.67 743.77,-552.7 749.74,-547.88 743.53,-548.21 743.53,-548.21 743.53,-548.21 749.74,-547.88 743.29,-543.72 753.51,-547.67"/>
</g>
<!-- &#45;427,515,331 -->
<g id="node24" class="node">
<title>&#45;427,515,331</title>
<path fill="none" stroke="black" d="M225.59,-418.04C225.59,-418.04 349.68,-418.04 349.68,-418.04 355.68,-418.04 361.68,-424.04 361.68,-430.04 361.68,-430.04 361.68,-509.96 361.68,-509.96 361.68,-515.96 355.68,-521.96 349.68,-521.96 349.68,-521.96 225.59,-521.96 225.59,-521.96 219.59,-521.96 213.59,-515.96 213.59,-509.96 213.59,-509.96 213.59,-430.04 213.59,-430.04 213.59,-424.04 219.59,-418.04 225.59,-418.04"/>
<text text-anchor="start" x="279.38" y="-507.5" font-family="Arial" font-weight="bold" font-size="10.00">INT</text>
<text text-anchor="start" x="264.76" y="-490.5" font-family="Arial" font-size="10.00" fill="#8b6914">Integration</text>
<text text-anchor="start" x="261.38" y="-475.5" font-family="Arial" font-style="italic" font-size="10.00">No backups</text>
<text text-anchor="start" x="257.26" y="-459.5" font-family="Arial" font-style="italic" font-size="10.00">Strict security</text>
<text text-anchor="start" x="254.63" y="-443.5" font-family="Arial" font-style="italic" font-size="10.00">Cost optimized</text>
<text text-anchor="start" x="223.51" y="-426.5" font-family="Arial" font-size="10.00" fill="#104e8b">todo.int.internal.example.com</text>
</g>
<!-- 637,244,255&#45;&gt;&#45;427,515,331 -->
<g id="edge2" class="edge">
<title>637,244,255&#45;&gt;&#45;427,515,331</title>
<path fill="none" stroke="grey" stroke-dasharray="1,5" d="M176.95,-452.25C185.3,-453.6 193.84,-454.98 202.29,-456.35"/>
<polygon fill="grey" stroke="grey" points="212.12,-457.94 201.53,-460.78 208.39,-457.33 202.25,-456.34 202.25,-456.34 202.25,-456.34 208.39,-457.33 202.97,-451.9 212.12,-457.94"/>
</g>
<!-- &#45;427,515,331&#45;&gt;routes_628,379,063 -->
<g id="edge6" class="edge">
<title>&#45;427,515,331:domain&#45;&gt;routes_628,379,063</title>
<path fill="none" stroke="black" d="M362.14,-499.72C374.21,-503.7 386.68,-507.32 398.68,-510 522.97,-537.77 674.65,-544.14 743.7,-545.59"/>
<polygon fill="black" stroke="black" points="753.61,-545.77 743.53,-550.08 749.83,-545.7 743.61,-545.59 743.61,-545.59 743.61,-545.59 749.83,-545.7 743.7,-541.09 753.61,-545.77"/>
</g>
<!-- 136,064,381 -->
<g id="node25" class="node">
<title>136,064,381</title>
<path fill="none" stroke="black" d="M410.68,-388.04C410.68,-388.04 540.77,-388.04 540.77,-388.04 546.77,-388.04 552.77,-394.04 552.77,-400.04 552.77,-400.04 552.77,-479.96 552.77,-479.96 552.77,-485.96 546.77,-491.96 540.77,-491.96 540.77,-491.96 410.68,-491.96 410.68,-491.96 404.68,-491.96 398.68,-485.96 398.68,-479.96 398.68,-479.96 398.68,-400.04 398.68,-400.04 398.68,-394.04 404.68,-388.04 410.68,-388.04"/>
<text text-anchor="start" x="462.23" y="-477.5" font-family="Arial" font-weight="bold" font-size="10.00">PERF</text>
<text text-anchor="start" x="447.98" y="-460.5" font-family="Arial" font-size="10.00" fill="#8b6914">Performance</text>
<text text-anchor="start" x="456.6" y="-445.5" font-family="Arial" font-style="italic" font-size="10.00">Backups</text>
<text text-anchor="start" x="445.35" y="-429.5" font-family="Arial" font-style="italic" font-size="10.00">Strict security</text>
<text text-anchor="start" x="425.48" y="-413.5" font-family="Arial" font-style="italic" font-size="10.00">Performance optimized</text>
<text text-anchor="start" x="408.6" y="-396.5" font-family="Arial" font-size="10.00" fill="#104e8b">todo.perf.internal.example.com</text>
</g>
<!-- &#45;427,515,331&#45;&gt;136,064,381 -->
<g id="edge4" class="edge">
<title>&#45;427,515,331&#45;&gt;136,064,381</title>
<path fill="none" stroke="grey" stroke-dasharray="1,5" d="M361.92,-458.19C370.35,-456.83 379.02,-455.43 387.62,-454.04"/>
<polygon fill="grey" stroke="grey" points="397.25,-452.49 388.09,-458.52 393.51,-453.09 387.38,-454.08 387.38,-454.08 387.38,-454.08 393.51,-453.09 386.66,-449.64 397.25,-452.49"/>
</g>
<!-- 1,135,474,118 -->
<g id="node26" class="node">
<title>1,135,474,118</title>
<path fill="none" stroke="black" d="M601.77,-408.04C601.77,-408.04 698.11,-408.04 698.11,-408.04 704.11,-408.04 710.11,-414.04 710.11,-420.04 710.11,-420.04 710.11,-499.96 710.11,-499.96 710.11,-505.96 704.11,-511.96 698.11,-511.96 698.11,-511.96 601.77,-511.96 601.77,-511.96 595.77,-511.96 589.77,-505.96 589.77,-499.96 589.77,-499.96 589.77,-420.04 589.77,-420.04 589.77,-414.04 595.77,-408.04 601.77,-408.04"/>
<text text-anchor="start" x="635.31" y="-497.5" font-family="Arial" font-weight="bold" font-size="10.00">PROD</text>
<text text-anchor="start" x="626.69" y="-480.5" font-family="Arial" font-size="10.00" fill="#8b6914">Production</text>
<text text-anchor="start" x="630.81" y="-465.5" font-family="Arial" font-style="italic" font-size="10.00">Backups</text>
<text text-anchor="start" x="619.56" y="-449.5" font-family="Arial" font-style="italic" font-size="10.00">Strict security</text>
<text text-anchor="start" x="599.69" y="-433.5" font-family="Arial" font-style="italic" font-size="10.00">Performance optimized</text>
<text text-anchor="start" x="620.69" y="-416.5" font-family="Arial" font-size="10.00" fill="#104e8b">example.com</text>
</g>
<!-- &#45;427,515,331&#45;&gt;1,135,474,118 -->
<g id="edge5" class="edge">
<title>&#45;427,515,331&#45;&gt;1,135,474,118</title>
<path fill="none" stroke="grey" stroke-dasharray="1,5" d="M362.04,-493.67C374.16,-496.72 386.69,-499.34 398.68,-501 466.52,-510.37 485.67,-514.71 552.77,-501 561.43,-499.23 570.28,-496.65 578.92,-493.63"/>
<polygon fill="grey" stroke="grey" points="588.2,-490.18 580.4,-497.89 584.66,-491.5 578.83,-493.67 578.83,-493.67 578.83,-493.67 584.66,-491.5 577.26,-489.45 588.2,-490.18"/>
</g>
<!-- 136,064,381&#45;&gt;routes_628,379,063 -->
<g id="edge8" class="edge">
<title>136,064,381:domain&#45;&gt;routes_628,379,063</title>
<path fill="none" stroke="black" d="M553.11,-398.16C605.31,-376.23 672.7,-361 718.11,-399 759.66,-433.77 709.65,-473.85 739.61,-519 741.56,-521.94 743.95,-524.63 746.59,-527.07"/>
<polygon fill="black" stroke="black" points="754.11,-532.93 743.46,-530.34 751.13,-530.61 746.22,-526.79 746.22,-526.79 746.22,-526.79 751.13,-530.61 748.99,-523.24 754.11,-532.93"/>
</g>
<!-- 136,064,381&#45;&gt;1,135,474,118 -->
<g id="edge7" class="edge">
<title>136,064,381&#45;&gt;1,135,474,118</title>
<path fill="none" stroke="grey" stroke-dasharray="1,5" d="M553.26,-448.89C561.6,-449.86 570.06,-450.84 578.32,-451.8"/>
<polygon fill="grey" stroke="grey" points="588.23,-452.95 577.77,-456.27 584.47,-452.51 578.29,-451.8 578.29,-451.8 578.29,-451.8 584.47,-452.51 578.81,-447.33 588.23,-452.95"/>
</g>
<!-- 1,135,474,118&#45;&gt;routes_628,379,063 -->
<g id="edge9" class="edge">
<title>1,135,474,118:domain&#45;&gt;routes_628,379,063</title>
<path fill="none" stroke="black" d="M710.2,-499.72C720.02,-506.17 730.1,-512.78 739.61,-519 741.6,-520.3 743.64,-521.63 745.71,-522.98"/>
<polygon fill="black" stroke="black" points="753.75,-528.22 742.91,-526.53 750.58,-526.15 745.37,-522.76 745.37,-522.76 745.37,-522.76 750.58,-526.15 747.82,-518.99 753.75,-528.22"/>
</g>
</g>
</svg>
