<?xml version="1.0" encoding="UTF-8" standalone="no"?>
<!DOCTYPE svg PUBLIC "-//W3C//DTD SVG 1.1//EN"
 "http://www.w3.org/Graphics/SVG/1.1/DTD/svg11.dtd">
<!-- Generated by graphviz version 8.0.3 (20230416.2022)
 -->
<!-- Pages: 1 -->
<svg width="1276pt" height="689pt"
 viewBox="0.00 0.00 1276.00 689.00" xmlns="http://www.w3.org/2000/svg" xmlns:xlink="http://www.w3.org/1999/xlink">
<g id="graph0" class="graph" transform="scale(1 1) rotate(0) translate(4 685)">
<polygon fill="white" stroke="none" points="-4,4 -4,-685 1272,-685 1272,4 -4,4"/>
<g id="clust1" class="cluster">
<title>cluster_1,921,042,854</title>
<path fill="none" stroke="#8b6914" d="M20,-8C20,-8 1248,-8 1248,-8 1254,-8 1260,-14 1260,-20 1260,-20 1260,-661 1260,-661 1260,-667 1254,-673 1248,-673 1248,-673 20,-673 20,-673 14,-673 8,-667 8,-661 8,-661 8,-20 8,-20 8,-14 14,-8 20,-8"/>
<text text-anchor="start" x="577" y="-658.8" font-family="Times,serif" font-size="14.00" fill="#8b6914"> </text>
<text text-anchor="start" x="581" y="-658.8" font-family="Times,serif" font-weight="bold" font-size="14.00" fill="#8b6914">To Do Application</text>
<text text-anchor="start" x="687" y="-658.8" font-family="Times,serif" font-size="14.00" fill="#8b6914"> </text>
</g>
<g id="clust5" class="cluster">
<title>cluster_routes_1,921,042,854</title>
<polygon fill="none" stroke="#8b6914" stroke-dasharray="1,5" points="624,-427 624,-610 712,-610 712,-427 624,-427"/>
<text text-anchor="start" x="645.5" y="-595.8" font-family="Times,serif" font-size="14.00" fill="#8b6914"> </text>
<text text-anchor="start" x="649.5" y="-595.8" font-family="Times,serif" font-style="italic" font-size="14.00" fill="#8b6914">Routes</text>
<text text-anchor="start" x="686.5" y="-595.8" font-family="Times,serif" font-size="14.00" fill="#8b6914"> </text>
</g>
<g id="clust6" class="cluster">
<title>cluster_environments_1,921,042,854</title>
<polygon fill="none" stroke="#8b6914" stroke-dasharray="1,5" points="16,-483 16,-642 603,-642 603,-483 16,-483"/>
<text text-anchor="start" x="267.5" y="-627.8" font-family="Times,serif" font-size="14.00" fill="#8b6914"> </text>
<text text-anchor="start" x="271.5" y="-627.8" font-family="Times,serif" font-style="italic" font-size="14.00" fill="#8b6914">Environments</text>
<text text-anchor="start" x="347.5" y="-627.8" font-family="Times,serif" font-size="14.00" fill="#8b6914"> </text>
</g>
<g id="clust2" class="cluster">
<title>cluster_&#45;1,822,139,315</title>
<g id="a_clust2"><a xlink:title="kubernetesdemo/to&#45;do&#45;app&#45;backend">
<polygon fill="none" stroke="#8b1a1a" points="834,-178 834,-487 981,-487 981,-178 834,-178"/>
<text text-anchor="start" x="882" y="-470.8" font-family="Times,serif" font-weight="bold" font-size="14.00" fill="#8b1a1a">Backend</text>
<text text-anchor="start" x="844" y="-454.8" font-family="Times,serif" font-size="9.00" fill="#8b1a1a">kubernetesdemo/to&#45;do&#45;app&#45;backend</text>
</a>
</g>
</g>
<g id="clust3" class="cluster">
<title>cluster_&#45;1,448,994,339</title>
<g id="a_clust3"><a xlink:title="kubernetesdemo/to&#45;do&#45;app&#45;frontend">
<polygon fill="none" stroke="#8b1a1a" points="834,-495 834,-642 982,-642 982,-495 834,-495"/>
<text text-anchor="start" x="880.5" y="-625.8" font-family="Times,serif" font-weight="bold" font-size="14.00" fill="#8b1a1a">Frontend</text>
<text text-anchor="start" x="844" y="-609.8" font-family="Times,serif" font-size="9.00" fill="#8b1a1a">kubernetesdemo/to&#45;do&#45;app&#45;frontend</text>
</a>
</g>
</g>
<g id="clust4" class="cluster">
<title>cluster_&#45;1,272,211,242</title>
<g id="a_clust4"><a xlink:title="unspecified">
<polygon fill="none" stroke="#8b1a1a" points="1087,-16 1087,-379 1252,-379 1252,-16 1087,-16"/>
<text text-anchor="start" x="1142.5" y="-362.8" font-family="Times,serif" font-weight="bold" font-size="14.00" fill="#8b1a1a">Database</text>
<text text-anchor="start" x="1149" y="-346.8" font-family="Times,serif" font-size="9.00" fill="#8b1a1a">unspecified</text>
</a>
</g>
</g>
<!-- 470,345,840 -->
<g id="node1" class="node">
<title>470,345,840</title>
<g id="a_node1"><a xlink:title="Variable">
<polygon fill="none" stroke="#8b6914" points="954.5,-384 860.5,-384 860.5,-348 954.5,-348 954.5,-384"/>
<text text-anchor="middle" x="907.5" y="-363.5" font-family="Arial" font-size="10.00">DB_USERNAME</text>
</a>
</g>
</g>
<!-- &#45;532,522,827 -->
<g id="node2" class="node">
<title>&#45;532,522,827</title>
<g id="a_node2"><a xlink:title="Variable">
<polygon fill="none" stroke="#8b6914" points="955,-222 860,-222 860,-186 955,-186 955,-222"/>
<text text-anchor="middle" x="907.5" y="-201.5" font-family="Arial" font-size="10.00">DB_PASSWORD</text>
</a>
</g>
</g>
<!-- &#45;705,265,471 -->
<g id="node3" class="node">
<title>&#45;705,265,471</title>
<g id="a_node3"><a xlink:title="Variable">
<polygon fill="none" stroke="#8b6914" points="939.5,-330 875.5,-330 875.5,-294 939.5,-294 939.5,-330"/>
<text text-anchor="middle" x="907.5" y="-309.5" font-family="Arial" font-size="10.00">DB_HOST</text>
</a>
</g>
</g>
<!-- &#45;970,752,661 -->
<g id="node12" class="node">
<title>&#45;970,752,661</title>
<g id="a_node12"><a xlink:title="Port">
<ellipse fill="none" stroke="#8b6914" cx="1169.5" cy="-312" rx="18" ry="18"/>
<text text-anchor="middle" x="1169.5" y="-309.5" font-family="Arial" font-size="10.00">3306</text>
</a>
</g>
</g>
<!-- &#45;705,265,471&#45;&gt;&#45;970,752,661 -->
<g id="edge9" class="edge">
<title>&#45;705,265,471&#45;&gt;&#45;970,752,661</title>
<path fill="none" stroke="grey" stroke-dasharray="5,2" d="M949.78,-312C986.55,-312 1041.42,-312 1087,-312"/>
<polygon fill="grey" stroke="grey" points="939.86,-312 949.86,-307.5 944.86,-312 949.86,-312 949.86,-312 949.86,-312 944.86,-312 949.86,-316.5 939.86,-312 939.86,-312"/>
<text text-anchor="start" x="1008" y="-316.4" font-family="Arial" font-size="12.00"> </text>
<text text-anchor="start" x="1012" y="-316.4" font-family="Arial" font-style="italic" font-size="12.00" fill="grey">Host Name</text>
<text text-anchor="start" x="1073" y="-316.4" font-family="Arial" font-size="12.00"> </text>
</g>
<!-- 112,019,839 -->
<g id="node4" class="node">
<title>112,019,839</title>
<g id="a_node4"><a xlink:title="Variable">
<polygon fill="none" stroke="#8b6914" points="940,-276 875,-276 875,-240 940,-240 940,-276"/>
<text text-anchor="middle" x="907.5" y="-255.5" font-family="Arial" font-size="10.00">DB_NAME</text>
</a>
</g>
</g>
<!-- &#45;1,574,546,380 -->
<g id="node5" class="node">
<title>&#45;1,574,546,380</title>
<g id="a_node5"><a xlink:title="Port">
<ellipse fill="none" stroke="#8b6914" cx="907.5" cy="-420" rx="18" ry="18"/>
<text text-anchor="middle" x="907.5" y="-417.5" font-family="Arial" font-size="10.00">8080</text>
</a>
</g>
</g>
<!-- &#45;1,039,158,855 -->
<g id="node6" class="node">
<title>&#45;1,039,158,855</title>
<g id="a_node6"><a xlink:title="Variable">
<polygon fill="none" stroke="#8b6914" points="948,-539 867,-539 867,-503 948,-503 948,-539"/>
<text text-anchor="middle" x="907.5" y="-518.5" font-family="Arial" font-size="10.00">SERVER_URI</text>
</a>
</g>
</g>
<!-- &#45;1,576,160,372 -->
<g id="node7" class="node">
<title>&#45;1,576,160,372</title>
<g id="a_node7"><a xlink:title="Port">
<ellipse fill="none" stroke="#8b6914" cx="907.5" cy="-575" rx="18" ry="18"/>
<text text-anchor="middle" x="907.5" y="-572.5" font-family="Arial" font-size="10.00">8080</text>
</a>
</g>
</g>
<!-- &#45;159,896,888 -->
<g id="node8" class="node">
<title>&#45;159,896,888</title>
<g id="a_node8"><a xlink:title="Variable">
<polygon fill="none" stroke="#8b6914" points="1244,-222 1095,-222 1095,-186 1244,-186 1244,-222"/>
<text text-anchor="middle" x="1169.5" y="-201.5" font-family="Arial" font-size="10.00">MYSQL_ROOT_PASSWORD</text>
</a>
</g>
</g>
<!-- &#45;2,058,310,437 -->
<g id="node9" class="node">
<title>&#45;2,058,310,437</title>
<g id="a_node9"><a xlink:title="Variable">
<polygon fill="none" stroke="#8b6914" points="1212,-276 1127,-276 1127,-240 1212,-240 1212,-276"/>
<text text-anchor="middle" x="1169.5" y="-255.5" font-family="Arial" font-size="10.00">MYSQL_USER</text>
</a>
</g>
</g>
<!-- &#45;1,730,231,540 -->
<g id="node10" class="node">
<title>&#45;1,730,231,540</title>
<g id="a_node10"><a xlink:title="Variable">
<polygon fill="none" stroke="#8b6914" points="1227,-114 1112,-114 1112,-78 1227,-78 1227,-114"/>
<text text-anchor="middle" x="1169.5" y="-93.5" font-family="Arial" font-size="10.00">MYSQL_PASSWORD</text>
</a>
</g>
</g>
<!-- &#45;1,211,280,413 -->
<g id="node11" class="node">
<title>&#45;1,211,280,413</title>
<g id="a_node11"><a xlink:title="Variable">
<polygon fill="none" stroke="#8b6914" points="1224,-168 1115,-168 1115,-132 1224,-132 1224,-168"/>
<text text-anchor="middle" x="1169.5" y="-147.5" font-family="Arial" font-size="10.00">MYSQL_DATABASE</text>
</a>
</g>
</g>
<!-- &#45;998,004,845 -->
<g id="node13" class="node">
<title>&#45;998,004,845</title>
<g id="a_node13"><a xlink:title="Port">
<polygon fill="none" stroke="#8b6914" points="1207,-60 1204,-64 1183,-64 1180,-60 1132,-60 1132,-24 1207,-24 1207,-60"/>
<text text-anchor="middle" x="1169.5" y="-39.5" font-family="Arial" font-size="10.00">/var/lib/mysql</text>
</a>
</g>
</g>
<!-- 455,602,712 -->
<g id="node14" class="node">
<title>455,602,712</title>
<polygon fill="none" stroke="black" points="703.5,-257 632.5,-257 632.5,-219 703.5,-219 703.5,-257"/>
<text text-anchor="start" x="646" y="-244" font-family="Arial" font-style="italic" font-size="10.00" fill="#8b6914">Password</text>
<text text-anchor="start" x="642.5" y="-229" font-family="Arial" font-style="italic" font-size="10.00">&lt;Encoded&gt;</text>
</g>
<!-- 455,602,712&#45;&gt;470,345,840 -->
<g id="edge10" class="edge">
<title>455,602,712&#45;&gt;470,345,840</title>
<path fill="none" stroke="grey" stroke-dasharray="5,2" d="M696.96,-257.43C729.04,-279.17 783.72,-314.53 834,-339 839.47,-341.66 845.27,-344.23 851.12,-346.64"/>
<polygon fill="grey" stroke="grey" points="860.3,-350.32 849.35,-350.78 855.66,-348.46 851.02,-346.6 851.02,-346.6 851.02,-346.6 855.66,-348.46 852.69,-342.43 860.3,-350.32 860.3,-350.32"/>
</g>
<!-- 455,602,712&#45;&gt;&#45;2,058,310,437 -->
<g id="edge11" class="edge">
<title>455,602,712&#45;&gt;&#45;2,058,310,437</title>
<path fill="none" stroke="grey" stroke-dasharray="5,2" d="M703.92,-220.07C736.58,-204.37 787.19,-182.76 834,-174 898.66,-161.9 918.25,-157.81 982,-174 1033.47,-187.07 1038.27,-209.9 1087,-231 1096.63,-235.17 1107.14,-239.09 1117.3,-242.58"/>
<polygon fill="grey" stroke="grey" points="1126.51,-245.66 1115.59,-246.76 1121.76,-244.08 1117.02,-242.49 1117.02,-242.49 1117.02,-242.49 1121.76,-244.08 1118.45,-238.22 1126.51,-245.66 1126.51,-245.66"/>
</g>
<!-- &#45;1,956,109,982 -->
<g id="node15" class="node">
<title>&#45;1,956,109,982</title>
<polygon fill="none" stroke="black" points="703.5,-94 632.5,-94 632.5,-56 703.5,-56 703.5,-94"/>
<text text-anchor="start" x="646" y="-81" font-family="Arial" font-style="italic" font-size="10.00" fill="#8b6914">Password</text>
<text text-anchor="start" x="642.5" y="-66" font-family="Arial" font-style="italic" font-size="10.00">&lt;Encoded&gt;</text>
</g>
<!-- &#45;1,956,109,982&#45;&gt;&#45;532,522,827 -->
<g id="edge12" class="edge">
<title>&#45;1,956,109,982&#45;&gt;&#45;532,522,827</title>
<path fill="none" stroke="grey" stroke-dasharray="5,2" d="M699.12,-94.45C727.29,-112.65 770.53,-140.62 808,-165 819.57,-172.53 821.49,-176.16 834,-182 839.19,-184.42 844.72,-186.66 850.31,-188.7"/>
<polygon fill="grey" stroke="grey" points="859.74,-191.95 848.82,-192.95 855.01,-190.32 850.29,-188.69 850.29,-188.69 850.29,-188.69 855.01,-190.32 851.75,-184.44 859.74,-191.95 859.74,-191.95"/>
</g>
<!-- &#45;1,956,109,982&#45;&gt;&#45;1,730,231,540 -->
<g id="edge13" class="edge">
<title>&#45;1,956,109,982&#45;&gt;&#45;1,730,231,540</title>
<path fill="none" stroke="grey" stroke-dasharray="5,2" d="M703.73,-76.46C786.11,-79.92 994.51,-88.68 1102.04,-93.21"/>
<polygon fill="grey" stroke="grey" points="1111.81,-93.62 1101.63,-97.69 1106.81,-93.41 1101.82,-93.2 1101.82,-93.2 1101.82,-93.2 1106.81,-93.41 1102.01,-88.7 1111.81,-93.62 1111.81,-93.62"/>
</g>
<!-- &#45;238,252,870 -->
<g id="node16" class="node">
<title>&#45;238,252,870</title>
<polygon fill="none" stroke="black" points="943,-148 872,-148 872,-110 943,-110 943,-148"/>
<text text-anchor="start" x="885.5" y="-135" font-family="Arial" font-style="italic" font-size="10.00" fill="#8b6914">Password</text>
<text text-anchor="start" x="882" y="-120" font-family="Arial" font-style="italic" font-size="10.00">&lt;Encoded&gt;</text>
</g>
<!-- &#45;238,252,870&#45;&gt;&#45;159,896,888 -->
<g id="edge14" class="edge">
<title>&#45;238,252,870&#45;&gt;&#45;159,896,888</title>
<path fill="none" stroke="grey" stroke-dasharray="5,2" d="M943.38,-128.24C979.67,-129.07 1036.7,-135.13 1077,-162 1083.67,-166.45 1080.63,-172.14 1087,-177 1088.73,-178.32 1090.54,-179.58 1092.39,-180.78"/>
<polygon fill="grey" stroke="grey" points="1100.84,-185.66 1089.93,-184.55 1096.51,-183.16 1092.18,-180.66 1092.18,-180.66 1092.18,-180.66 1096.51,-183.16 1094.43,-176.76 1100.84,-185.66 1100.84,-185.66"/>
</g>
<!-- 1,199,829,047 -->
<g id="node17" class="node">
<title>1,199,829,047</title>
<polygon fill="none" stroke="black" points="698,-155 638,-155 638,-117 698,-117 698,-155"/>
<text text-anchor="start" x="648" y="-142" font-family="Arial" font-style="italic" font-size="10.00" fill="#8b6914">Constant</text>
<text text-anchor="start" x="654.5" y="-127" font-family="Arial" font-size="10.00" fill="#8b6914">“</text>
<text text-anchor="start" x="658.5" y="-127" font-family="Arial" font-size="10.00">todo</text>
<text text-anchor="start" x="677.5" y="-127" font-family="Arial" font-size="10.00" fill="#8b6914">”</text>
</g>
<!-- 1,199,829,047&#45;&gt;112,019,839 -->
<g id="edge16" class="edge">
<title>1,199,829,047&#45;&gt;112,019,839</title>
<path fill="none" stroke="grey" stroke-dasharray="5,2" d="M698.31,-154.87C730.69,-175.24 784.79,-207.87 834,-231 843.96,-235.68 854.97,-240.13 865.33,-244.02"/>
<polygon fill="grey" stroke="grey" points="874.63,-247.42 863.69,-248.21 869.93,-245.7 865.24,-243.98 865.24,-243.98 865.24,-243.98 869.93,-245.7 866.78,-239.76 874.63,-247.42 874.63,-247.42"/>
</g>
<!-- 1,199,829,047&#45;&gt;&#45;1,211,280,413 -->
<g id="edge15" class="edge">
<title>1,199,829,047&#45;&gt;&#45;1,211,280,413</title>
<path fill="none" stroke="grey" stroke-dasharray="5,2" d="M698.21,-127.87C730.96,-119.2 785.8,-106.06 834,-101 899.42,-94.14 916.76,-92.57 982,-101 1023.75,-106.39 1069.49,-118.31 1105.23,-129.05"/>
<polygon fill="grey" stroke="grey" points="1114.55,-131.89 1103.68,-133.28 1109.77,-130.43 1104.99,-128.97 1104.99,-128.97 1104.99,-128.97 1109.77,-130.43 1106.3,-124.67 1114.55,-131.89 1114.55,-131.89"/>
</g>
<!-- &#45;1,920,616,204 -->
<g id="node18" class="node">
<title>&#45;1,920,616,204</title>
<g id="a_node18"><a xlink:title="1 Gibibytes">
<path fill="none" stroke="black" d="M934.5,-48.73C934.5,-50.53 922.4,-52 907.5,-52 892.6,-52 880.5,-50.53 880.5,-48.73 880.5,-48.73 880.5,-19.27 880.5,-19.27 880.5,-17.47 892.6,-16 907.5,-16 922.4,-16 934.5,-17.47 934.5,-19.27 934.5,-19.27 934.5,-48.73 934.5,-48.73"/>
<path fill="none" stroke="black" d="M934.5,-48.73C934.5,-46.92 922.4,-45.45 907.5,-45.45 892.6,-45.45 880.5,-46.92 880.5,-48.73"/>
<text text-anchor="middle" x="907.5" y="-31.5" font-family="Arial" font-size="10.00">1Gi</text>
</a>
</g>
</g>
<!-- &#45;1,920,616,204&#45;&gt;&#45;998,004,845 -->
<g id="edge20" class="edge">
<title>&#45;1,920,616,204&#45;&gt;&#45;998,004,845</title>
<path fill="none" stroke="grey" stroke-dasharray="5,2" d="M944.79,-35.12C991.07,-36.54 1071.2,-39.01 1121.94,-40.57"/>
<polygon fill="grey" stroke="grey" points="934.86,-34.81 944.99,-30.62 939.86,-34.96 944.86,-35.12 944.86,-35.12 944.86,-35.12 939.86,-34.96 944.72,-39.62 934.86,-34.81 934.86,-34.81"/>
<polygon fill="grey" stroke="grey" points="1131.68,-40.87 1121.55,-45.06 1126.69,-40.71 1121.69,-40.56 1121.69,-40.56 1121.69,-40.56 1126.69,-40.71 1121.83,-36.06 1131.68,-40.87 1131.68,-40.87"/>
</g>
<!-- routes_1,921,042,854 -->
<g id="node19" class="node">
<title>routes_1,921,042,854</title>
<polygon fill="none" stroke="black" points="696,-579 640,-579 640,-543 696,-543 696,-579"/>
<text text-anchor="start" x="648" y="-559.5" font-family="Arial" font-size="10.00"> </text>
<text text-anchor="start" x="652" y="-559.5" font-family="Arial" font-style="italic" font-size="10.00" fill="#104e8b">domain</text>
<text text-anchor="start" x="684" y="-559.5" font-family="Arial" font-size="10.00"> </text>
</g>
<!-- &#45;948,248,810 -->
<g id="node20" class="node">
<title>&#45;948,248,810</title>
<polygon fill="none" stroke="black" points="684,-519 640,-519 640,-495 684,-495 696,-507 684,-519"/>
<text text-anchor="start" x="648" y="-505.5" font-family="Arial" font-size="10.00"> </text>
<text text-anchor="start" x="652" y="-505.5" font-family="Arial" font-style="italic" font-size="10.00">Default</text>
<text text-anchor="start" x="684" y="-505.5" font-family="Arial" font-size="10.00"> </text>
</g>
<!-- &#45;948,248,810&#45;&gt;&#45;1,576,160,372 -->
<g id="edge18" class="edge">
<title>&#45;948,248,810&#45;&gt;&#45;1,576,160,372</title>
<path fill="none" stroke="black" d="M696.24,-514.8C742.35,-528 835.14,-554.57 880.43,-567.54"/>
<polygon fill="black" stroke="black" points="889.86,-570.23 879,-571.81 885.05,-568.86 880.24,-567.48 880.24,-567.48 880.24,-567.48 885.05,-568.86 881.48,-563.16 889.86,-570.23 889.86,-570.23"/>
</g>
<!-- &#45;495,479,550 -->
<g id="node21" class="node">
<title>&#45;495,479,550</title>
<polygon fill="none" stroke="black" points="692,-465 632,-465 632,-441 692,-441 704,-453 692,-465"/>
<text text-anchor="start" x="640" y="-451.5" font-family="Arial" font-size="10.00"> </text>
<text text-anchor="start" x="644" y="-451.5" font-family="Arial" font-size="10.00" fill="#104e8b">api</text>
<text text-anchor="start" x="657" y="-451.5" font-family="Arial" font-style="italic" font-size="10.00" fill="#104e8b">.domain</text>
<text text-anchor="start" x="692" y="-451.5" font-family="Arial" font-size="10.00"> </text>
</g>
<!-- &#45;495,479,550&#45;&gt;&#45;1,574,546,380 -->
<g id="edge19" class="edge">
<title>&#45;495,479,550&#45;&gt;&#45;1,574,546,380</title>
<path fill="none" stroke="black" d="M704.3,-448.1C752.17,-441.44 836.62,-429.71 879.66,-423.73"/>
<polygon fill="black" stroke="black" points="889.42,-422.37 880.13,-428.21 884.46,-423.06 879.51,-423.75 879.51,-423.75 879.51,-423.75 884.46,-423.06 878.89,-419.29 889.42,-422.37 889.42,-422.37"/>
</g>
<!-- &#45;495,479,550&#45;&gt;&#45;1,039,158,855 -->
<g id="edge17" class="edge">
<title>&#45;495,479,550&#45;&gt;&#45;1,039,158,855</title>
<path fill="none" stroke="grey" stroke-dasharray="5,2" d="M704.3,-463.11C744.83,-474.71 811.6,-493.83 857.24,-506.9"/>
<polygon fill="grey" stroke="grey" points="866.64,-509.59 855.79,-511.16 861.83,-508.21 857.03,-506.83 857.03,-506.83 857.03,-506.83 861.83,-508.21 858.26,-502.51 866.64,-509.59 866.64,-509.59"/>
<text text-anchor="start" x="722" y="-495.4" font-family="Arial" font-size="12.00"> </text>
<text text-anchor="start" x="726" y="-495.4" font-family="Arial" font-style="italic" font-size="12.00" fill="grey">Domain Name</text>
<text text-anchor="start" x="804" y="-495.4" font-family="Arial" font-size="12.00"> </text>
</g>
<!-- 443,639,963 -->
<g id="node22" class="node">
<title>443,639,963</title>
<path fill="none" stroke="black" d="M36,-512C36,-512 123,-512 123,-512 129,-512 135,-518 135,-524 135,-524 135,-598 135,-598 135,-604 129,-610 123,-610 123,-610 36,-610 36,-610 30,-610 24,-604 24,-598 24,-598 24,-524 24,-524 24,-518 30,-512 36,-512"/>
<text text-anchor="start" x="68.5" y="-597" font-family="Arial" font-weight="bold" font-size="10.00">DEV</text>
<text text-anchor="start" x="50.5" y="-581" font-family="Arial" font-size="10.00" fill="#8b6914">Development</text>
<text text-anchor="start" x="53" y="-567" font-family="Arial" font-style="italic" font-size="10.00">No backups</text>
<text text-anchor="start" x="42.5" y="-552" font-family="Arial" font-style="italic" font-size="10.00">Relaxed security</text>
<text text-anchor="start" x="46" y="-537" font-family="Arial" font-style="italic" font-size="10.00">Cost optimized</text>
<text text-anchor="start" x="34" y="-521" font-family="Arial" font-size="10.00" fill="#104e8b">todo.dev.internal.test</text>
</g>
<!-- 443,639,963&#45;&gt;routes_1,921,042,854 -->
<g id="edge2" class="edge">
<title>443,639,963:domain&#45;&gt;routes_1,921,042,854</title>
<path fill="none" stroke="black" d="M134.85,-601.34C160.77,-616.44 192.86,-630 224.5,-630 224.5,-630 224.5,-630 535.5,-630 565.83,-630 575.64,-633.08 603,-620 619.37,-612.17 634.47,-598.71 645.88,-586.62"/>
<polygon fill="black" stroke="black" points="652.49,-579.33 649.1,-589.76 649.13,-583.03 645.77,-586.74 645.77,-586.74 645.77,-586.74 649.13,-583.03 642.44,-583.71 652.49,-579.33 652.49,-579.33"/>
</g>
<!-- &#45;2,118,919,836 -->
<g id="node23" class="node">
<title>&#45;2,118,919,836</title>
<path fill="none" stroke="black" d="M184,-502C184,-502 267,-502 267,-502 273,-502 279,-508 279,-514 279,-514 279,-588 279,-588 279,-594 273,-600 267,-600 267,-600 184,-600 184,-600 178,-600 172,-594 172,-588 172,-588 172,-514 172,-514 172,-508 178,-502 184,-502"/>
<text text-anchor="start" x="217" y="-587" font-family="Arial" font-weight="bold" font-size="10.00">INT</text>
<text text-anchor="start" x="202.5" y="-571" font-family="Arial" font-size="10.00" fill="#8b6914">Integration</text>
<text text-anchor="start" x="199" y="-557" font-family="Arial" font-style="italic" font-size="10.00">No backups</text>
<text text-anchor="start" x="195" y="-542" font-family="Arial" font-style="italic" font-size="10.00">Strict security</text>
<text text-anchor="start" x="192" y="-527" font-family="Arial" font-style="italic" font-size="10.00">Cost optimized</text>
<text text-anchor="start" x="182" y="-511" font-family="Arial" font-size="10.00" fill="#104e8b">todo.int.internal.test</text>
</g>
<!-- 443,639,963&#45;&gt;&#45;2,118,919,836 -->
<g id="edge1" class="edge">
<title>443,639,963&#45;&gt;&#45;2,118,919,836</title>
<path fill="none" stroke="grey" stroke-dasharray="1,5" d="M134.94,-557.22C143.95,-556.59 153.35,-555.94 162.52,-555.3"/>
<polygon fill="grey" stroke="grey" points="172.36,-554.62 162.7,-559.8 167.38,-554.97 162.39,-555.31 162.39,-555.31 162.39,-555.31 167.38,-554.97 162.08,-550.82 172.36,-554.62 172.36,-554.62"/>
</g>
<!-- &#45;2,118,919,836&#45;&gt;routes_1,921,042,854 -->
<g id="edge5" class="edge">
<title>&#45;2,118,919,836:domain&#45;&gt;routes_1,921,042,854</title>
<path fill="none" stroke="black" d="M278.74,-502.37C290.27,-494.41 302.95,-487.36 316,-483 340.15,-474.94 588.68,-474.6 603,-484 623.15,-497.23 608.56,-515.49 624,-534 626.34,-536.8 629.05,-539.41 631.95,-541.8"/>
<polygon fill="black" stroke="black" points="639.93,-547.65 629.2,-545.37 635.9,-544.7 631.86,-541.74 631.86,-541.74 631.86,-541.74 635.9,-544.7 634.52,-538.11 639.93,-547.65 639.93,-547.65"/>
</g>
<!-- 227,383,360 -->
<g id="node24" class="node">
<title>227,383,360</title>
<path fill="none" stroke="black" d="M328,-492C328,-492 425,-492 425,-492 431,-492 437,-498 437,-504 437,-504 437,-578 437,-578 437,-584 431,-590 425,-590 425,-590 328,-590 328,-590 322,-590 316,-584 316,-578 316,-578 316,-504 316,-504 316,-498 322,-492 328,-492"/>
<text text-anchor="start" x="362.5" y="-577" font-family="Arial" font-weight="bold" font-size="10.00">PERF</text>
<text text-anchor="start" x="348.5" y="-561" font-family="Arial" font-size="10.00" fill="#8b6914">Performance</text>
<text text-anchor="start" x="357" y="-547" font-family="Arial" font-style="italic" font-size="10.00">Backups</text>
<text text-anchor="start" x="346" y="-532" font-family="Arial" font-style="italic" font-size="10.00">Strict security</text>
<text text-anchor="start" x="326" y="-517" font-family="Arial" font-style="italic" font-size="10.00">Performance optimized</text>
<text text-anchor="start" x="330" y="-501" font-family="Arial" font-size="10.00" fill="#104e8b">todo.perf.internal.test</text>
</g>
<!-- &#45;2,118,919,836&#45;&gt;227,383,360 -->
<g id="edge3" class="edge">
<title>&#45;2,118,919,836&#45;&gt;227,383,360</title>
<path fill="none" stroke="grey" stroke-dasharray="1,5" d="M278.61,-547.5C287.49,-546.91 296.83,-546.28 306.07,-545.66"/>
<polygon fill="grey" stroke="grey" points="316.02,-544.99 306.35,-550.15 311.03,-545.33 306.04,-545.66 306.04,-545.66 306.04,-545.66 311.03,-545.33 305.74,-541.17 316.02,-544.99 316.02,-544.99"/>
</g>
<!-- &#45;1,219,703,870 -->
<g id="node25" class="node">
<title>&#45;1,219,703,870</title>
<path fill="none" stroke="black" d="M486,-512C486,-512 583,-512 583,-512 589,-512 595,-518 595,-524 595,-524 595,-598 595,-598 595,-604 589,-610 583,-610 583,-610 486,-610 486,-610 480,-610 474,-604 474,-598 474,-598 474,-524 474,-524 474,-518 480,-512 486,-512"/>
<text text-anchor="start" x="519.5" y="-597" font-family="Arial" font-weight="bold" font-size="10.00">PROD</text>
<text text-anchor="start" x="511" y="-581" font-family="Arial" font-size="10.00" fill="#8b6914">Production</text>
<text text-anchor="start" x="515" y="-567" font-family="Arial" font-style="italic" font-size="10.00">Backups</text>
<text text-anchor="start" x="504" y="-552" font-family="Arial" font-style="italic" font-size="10.00">Strict security</text>
<text text-anchor="start" x="484" y="-537" font-family="Arial" font-style="italic" font-size="10.00">Performance optimized</text>
<text text-anchor="start" x="515" y="-521" font-family="Arial" font-size="10.00" fill="#104e8b">todo.test</text>
</g>
<!-- &#45;2,118,919,836&#45;&gt;&#45;1,219,703,870 -->
<g id="edge4" class="edge">
<title>&#45;2,118,919,836&#45;&gt;&#45;1,219,703,870</title>
<path fill="none" stroke="grey" stroke-dasharray="1,5" d="M278.63,-585.16C290.46,-591.29 303.3,-596.75 316,-600 368.1,-613.33 384.21,-610.26 437,-600 446.25,-598.2 455.73,-595.52 464.96,-592.39"/>
<polygon fill="grey" stroke="grey" points="474.1,-589.12 466.2,-596.72 469.4,-590.8 464.69,-592.49 464.69,-592.49 464.69,-592.49 469.4,-590.8 463.17,-588.25 474.1,-589.12 474.1,-589.12"/>
</g>
<!-- 227,383,360&#45;&gt;routes_1,921,042,854 -->
<g id="edge7" class="edge">
<title>227,383,360:domain&#45;&gt;routes_1,921,042,854</title>
<path fill="none" stroke="black" d="M436.56,-511.26C484.22,-492.14 551.22,-475.53 603,-503 617.7,-510.8 612.03,-522.44 624,-534 626.42,-536.34 629.07,-538.58 631.84,-540.7"/>
<polygon fill="black" stroke="black" points="639.82,-546.34 629.05,-544.24 635.73,-543.45 631.65,-540.56 631.65,-540.56 631.65,-540.56 635.73,-543.45 634.25,-536.89 639.82,-546.34 639.82,-546.34"/>
</g>
<!-- 227,383,360&#45;&gt;&#45;1,219,703,870 -->
<g id="edge6" class="edge">
<title>227,383,360&#45;&gt;&#45;1,219,703,870</title>
<path fill="none" stroke="grey" stroke-dasharray="1,5" d="M436.92,-548.62C445.9,-549.77 455.23,-550.97 464.39,-552.14"/>
<polygon fill="grey" stroke="grey" points="474.24,-553.4 463.75,-556.59 469.28,-552.77 464.32,-552.13 464.32,-552.13 464.32,-552.13 469.28,-552.77 464.9,-547.67 474.24,-553.4 474.24,-553.4"/>
</g>
<!-- &#45;1,219,703,870&#45;&gt;routes_1,921,042,854 -->
<g id="edge8" class="edge">
<title>&#45;1,219,703,870:domain&#45;&gt;routes_1,921,042,854</title>
<path fill="none" stroke="black" d="M594.93,-561C606.83,-561 618.98,-561 629.83,-561"/>
<polygon fill="black" stroke="black" points="639.78,-561 629.78,-565.5 634.78,-561 629.78,-561 629.78,-561 629.78,-561 634.78,-561 629.78,-556.5 639.78,-561 639.78,-561"/>
</g>
</g>
</svg>
