<?xml version="1.0" encoding="UTF-8" standalone="no"?>
<!-- Generator: Adobe Illustrator 27.7.0, SVG Export Plug-In . SVG Version: 6.00 Build 0)  -->

<svg
   version="1.1"
   id="Layer_1"
   x="0px"
   y="0px"
   viewBox="0 0 280.39412 123.48894"
   xml:space="preserve"
   sodipodi:docname="Koncierge-v2.svg"
   inkscape:version="1.3 (0e150ed, 2023-07-21)"
   width="280.39413"
   height="123.48894"
   xmlns:inkscape="http://www.inkscape.org/namespaces/inkscape"
   xmlns:sodipodi="http://sodipodi.sourceforge.net/DTD/sodipodi-0.dtd"
   xmlns="http://www.w3.org/2000/svg"
   xmlns:svg="http://www.w3.org/2000/svg"><defs
   id="defs185" /><sodipodi:namedview
   id="namedview185"
   pagecolor="#ffffff"
   bordercolor="#666666"
   borderopacity="1.0"
   inkscape:showpageshadow="2"
   inkscape:pageopacity="0.0"
   inkscape:pagecheckerboard="0"
   inkscape:deskcolor="#d1d1d1"
   inkscape:zoom="1.5857387"
   inkscape:cx="289.77031"
   inkscape:cy="123.28639"
   inkscape:window-width="2048"
   inkscape:window-height="1020"
   inkscape:window-x="1536"
   inkscape:window-y="25"
   inkscape:window-maximized="1"
   inkscape:current-layer="Layer_1" />&#10;<style
   type="text/css"
   id="style1">&#10;	.st0{fill:#476BB3;}&#10;	.st1{fill:#FFFFFF;}&#10;</style>&#10;&#10;&#10;&#10;&#10;&#10;<g
   id="g179"
   transform="translate(-32.265858,-516.84856)">&#10;	<path
   class="st0"
   d="m 95.52,612.61 c -0.21,4.96 -0.42,9.91 -0.62,14.87 -2.17,0.02 -4.34,0.04 -6.5,0.06 -0.08,0.24 -0.22,0.48 -0.22,0.72 -0.01,3.03 -0.01,6.07 0.01,9.1 0,0.25 0.13,0.5 0.2,0.75 0.2,0.68 0.41,1.37 0.61,2.05 -5.58,0.01 -11.17,0.02 -16.75,0.03 -0.06,-1.06 -0.31,-2.15 -0.11,-3.15 0.17,-0.86 1.14,-1.13 2.02,-1.17 0.33,-0.02 0.67,0 1.15,0 0,-0.36 0,-0.68 0,-1 -0.32,-0.13 -0.64,-0.26 -1.01,-0.4 0,-1.36 0,-2.74 0,-4.11 -0.01,-0.88 -0.02,-1.76 -0.03,-2.64 -0.06,-0.07 -0.13,-0.19 -0.19,-0.19 -3.38,-0.02 -6.75,-0.04 -10.13,-0.04 -0.09,0 -0.17,0.27 -0.25,0.42 0.94,2.48 0.75,4.97 -0.02,7.45 -0.09,0.31 -0.33,0.57 -0.54,0.92 0.93,0.1 1.84,0.2 2.79,0.31 0,1.26 0,2.41 0,3.56 -4.02,0.01 -8.03,0.02 -12.05,0.04 0,0 0.01,-0.04 0.01,-0.04 -0.49,-0.06 -0.98,-0.17 -1.48,-0.18 -1.24,-0.03 -2.48,-0.01 -3.82,-0.01 0,-0.98 0,-1.82 0,-2.66 0.62,-0.4 1.24,-0.81 1.86,-1.21 0.06,-0.19 0.16,-0.37 0.16,-0.56 0.01,-2.46 0.02,-4.92 0,-7.38 0,-0.21 -0.14,-0.41 -0.22,-0.62 -2.31,0 -4.62,0.01 -6.93,0.01 -0.2,-0.69 -0.51,-1.36 -0.58,-2.06 -0.25,-2.83 -0.42,-5.67 -0.63,-8.51 -0.19,-2.6 -0.38,-5.2 -0.61,-7.8 -0.11,-1.19 -0.3,-2.37 -0.48,-3.75 -1.03,0.07 -2.11,0.14 -3.19,0.2 0.05,-0.23 0.05,-0.49 0.16,-0.67 0.83,-1.28 0.74,-2.6 0.24,-3.95 0.79,0 1.57,0 2.53,0 -0.14,-0.54 -0.23,-0.87 -0.31,-1.2 -0.12,-1.72 -0.23,-3.43 -0.35,-5.15 6.13,0 12.26,0 18.39,-0.02 0.39,0 0.78,-0.12 1.17,-0.18 2.91,-0.49 5.83,-0.98 8.74,-1.47 1.46,0.01 2.91,0.03 4.37,0.01 0.73,-0.01 1.46,-0.11 2.19,-0.17 4.05,0.14 7.87,-0.8 11.77,-2.63 0,0.61 0.04,1.08 -0.01,1.54 -0.1,0.92 -0.24,1.83 -0.36,2.74 0.36,0.05 0.72,0.16 1.07,0.16 3.18,0.02 6.37,0.02 9.55,0.02 -0.14,1.76 -0.29,3.53 -0.43,5.29 -0.29,-0.19 -0.57,-0.38 -0.86,-0.57 -0.26,0.37 -0.41,0.83 -0.7,0.96 -0.9,0.39 -0.9,0.96 -0.51,1.67 -0.99,0.88 -0.99,0.88 0.16,1.44 0.13,0.06 0.2,0.24 0.3,0.35 0.79,0.88 0.6,1.88 0.4,2.91 -0.04,0.23 0.25,0.52 0.39,0.78 -0.07,1.43 -0.14,2.86 -0.2,4.28 -0.04,0.29 -0.09,0.57 -0.15,0.85 z m -19.39,-0.66 c 0.39,-4.02 -3.17,-7.24 -6.59,-7.09 -4.02,0.17 -6.67,2.96 -6.86,6.88 -0.18,3.61 3.3,6.87 6.53,6.82 3.9,-0.06 7.49,-2.73 6.92,-6.61 z"
   id="path133" />&#10;	<path
   class="st0"
   d="m 43.67,569.16 c -0.39,-0.99 0.07,-2.19 1.14,-3.07 0.2,-0.16 0.32,-0.42 0.47,-0.63 -0.07,-0.06 -0.13,-0.12 -0.2,-0.18 0.52,-0.12 1.03,-0.24 1.4,-0.32 0.92,-2.61 1.76,-5.18 2.75,-7.7 0.37,-0.94 1.12,-1.73 1.65,-2.62 1.65,-2.78 4.07,-4.77 6.56,-6.77 2.15,-1.73 4.49,-2.76 7.15,-3.28 1.14,-0.22 2.24,-0.65 3.36,-0.98 0.08,-0.31 0.22,-0.62 0.22,-0.92 0.02,-4.54 0.02,-9.08 0,-13.62 0,-0.32 -0.13,-0.64 -0.19,-0.95 -0.26,-0.33 -0.49,-0.71 -0.8,-0.99 -1.38,-1.28 -2.64,-2.63 -2.67,-4.68 -0.02,-1.84 0.96,-3.19 2.25,-4.35 1.28,-1.15 2.78,-1.59 4.42,-0.97 1.97,0.74 3.55,2.47 3.74,4.95 0.1,1.34 -0.29,2.41 -1.05,3.57 -0.53,0.81 -1.11,1.33 -1.84,1.82 -0.04,1.24 -0.08,2.49 -0.12,3.73 0,0.33 0,0.67 0,1 -0.01,3.67 -0.03,7.33 -0.04,11 0,0.15 0.11,0.31 0.17,0.46 1.4,0.33 2.82,0.6 4.19,1.02 2.3,0.71 4.68,1.25 6.53,2.97 0.59,0.55 1.29,0.98 1.91,1.5 0.54,0.44 0.58,0.92 0.08,1.47 -1.85,2.02 -3.65,4.08 -5.52,6.09 -2.49,2.67 -5.03,5.31 -7.55,7.96 0,0.12 0.01,0.24 0.01,0.36 1.56,-0.05 3.12,-0.1 4.68,-0.15 0.2,-0.13 0.43,-0.22 0.59,-0.39 3.19,-3.4 6.38,-6.8 9.56,-10.21 0.18,-0.2 0.33,-0.42 0.48,-0.64 0.6,-0.88 1.48,-0.9 2.02,0 0.51,0.84 0.93,1.73 1.42,2.58 0.36,0.62 0.26,1.15 -0.22,1.66 -1.94,2.06 -3.86,4.13 -5.8,6.2 -0.22,0.24 -0.46,0.47 -0.65,0.99 0.92,0 1.85,-0.05 2.76,0.01 0.98,0.07 1.73,-0.21 2.44,-0.91 1.03,-1.01 2.18,-1.9 3.49,-3.02 0.45,1.51 0.91,2.81 1.21,4.15 0.19,0.87 0.13,1.8 0.23,2.7 0.07,0.65 -0.15,1.05 -0.8,1.2 -0.34,-0.02 -0.68,-0.05 -1.01,-0.05 -8.05,-0.01 -16.11,-0.02 -24.16,-0.01 -8.09,-0.01 -16.18,0.01 -24.26,0.02 z m 15.94,-4.32 c -0.05,0.03 -0.1,0.07 -0.15,0.1 0.05,0.01 0.11,0.02 0.16,0.04 0.13,0 0.27,0.01 0.4,0.01 0.68,0.07 1.36,0.15 2.04,0.22 0.13,0 0.26,0 0.4,0 0.64,-0.11 1.27,-0.23 1.91,-0.34 2.15,-2.23 4.3,-4.45 6.44,-6.68 2.95,-3.08 5.89,-6.16 8.82,-9.24 0.08,-0.09 0.12,-0.22 0.33,-0.63 -1.14,0 -2.1,0.05 -3.05,-0.01 -1.14,-0.08 -2.07,0.36 -2.82,1.13 -1.73,1.79 -3.39,3.64 -5.09,5.46 -2.19,2.34 -4.39,4.68 -6.59,7.02 -0.94,0.97 -1.87,1.94 -2.8,2.92 z m 8.25,-17.95 c -1.63,-0.07 -3.08,0.54 -4.25,1.6 -2.07,1.88 -3.98,3.93 -6.03,5.83 -3.14,2.9 -5.69,6.27 -7.94,9.88 -0.11,0.18 -0.06,0.66 0.09,0.78 0.42,0.32 2.74,-0.08 3.16,-0.5 1.58,-1.58 3.18,-3.14 4.71,-4.76 2.9,-3.06 5.78,-6.14 8.62,-9.26 0.87,-0.97 2.21,-1.8 1.64,-3.57 z"
   id="path134" />&#10;	<path
   class="st0"
   d="m 95.89,607.49 c -0.14,-0.26 -0.43,-0.56 -0.39,-0.78 0.2,-1.03 0.39,-2.03 -0.4,-2.91 -0.1,-0.12 -0.17,-0.29 -0.3,-0.35 -1.15,-0.57 -1.15,-0.56 -0.16,-1.44 -0.4,-0.71 -0.39,-1.28 0.51,-1.67 0.3,-0.13 0.45,-0.59 0.7,-0.96 0.28,0.19 0.57,0.38 0.86,0.57 -0.11,0.89 0.38,0.99 1.14,1.05 1.37,0.1 2.74,0.33 4.09,0.61 0.68,0.14 1.28,0.56 1.36,1.38 0,10.01 -0.01,20.03 -0.01,30.04 -0.25,1.34 -1.21,1.52 -2.33,1.41 -1.27,-0.12 -2.49,0.09 -3.61,0.69 -1.61,0.85 -2.04,2.35 -1.27,4.12 -0.09,0.08 -0.19,0.25 -0.29,0.25 -2.47,0.09 -4.19,-1.95 -3.4,-4.26 0.96,-2.83 2.89,-4.75 5.96,-5.31 0.08,-0.34 0.22,-0.68 0.22,-1.03 0.01,-7.29 0.01,-14.58 0,-21.88 0,-0.32 -0.1,-0.65 -0.16,-0.97 -0.13,-1.1 -0.97,-0.78 -1.62,-0.79 -0.69,-0.02 -0.66,0.48 -0.68,0.98 -0.01,0.41 -0.14,0.83 -0.22,1.25 z"
   id="path135" />&#10;	<path
   class="st0"
   d="m 38.39,601 c 0.5,1.35 0.59,2.67 -0.24,3.95 -0.12,0.18 -0.11,0.45 -0.16,0.67 -0.07,0.02 -0.14,0.03 -0.2,0.05 -0.03,-0.01 -0.07,-0.03 -0.1,-0.03 -0.02,0 -0.06,0.03 -0.07,0.05 -0.02,0.34 -0.05,0.67 -0.05,1.01 0,7.74 -0.01,15.49 -0.01,23.23 -1.28,0.2 -2.43,0.51 -3.05,1.89 -0.56,1.23 -1.03,1.28 -1.99,0.56 -0.02,-0.85 -0.05,-1.69 -0.05,-2.54 -0.01,-8.82 -0.02,-17.64 -0.03,-26.46 0.54,-1.11 0.99,-2.31 2.47,-2.49 1.16,0.05 2.32,0.08 3.48,0.11 z"
   id="path136" />&#10;	<path
   class="st0"
   d="m 50.63,580.04 c 0,-3.14 2.56,-5.89 5.48,-5.61 4.3,0.41 5.53,1.95 5.91,5.81 0.24,2.38 -2.66,5.94 -5.63,5.91 -2.55,-0.04 -6.12,-2.65 -5.76,-6.11 z m 5.86,-1.12 c -1.27,-0.01 -1.97,0.56 -1.99,1.6 -0.01,0.75 1.05,1.84 1.8,1.87 0.9,0.04 1.93,-0.96 1.91,-1.85 -0.01,-1.06 -0.59,-1.61 -1.72,-1.62 z"
   id="path137" />&#10;	<path
   class="st0"
   d="m 80.63,586.07 c -3.14,0.35 -6.04,-3.5 -6.1,-5.95 -0.07,-2.94 2.92,-5.73 5.9,-5.68 3.29,0.06 5.86,2.42 5.71,5.42 -0.17,3.53 -2.01,5.88 -5.51,6.21 z m -0.2,-3.88 c 1.21,0.01 1.85,-0.63 1.84,-1.83 -0.01,-0.97 -0.74,-1.63 -1.84,-1.64 -0.88,-0.01 -1.84,0.84 -1.85,1.63 -0.01,0.98 0.85,1.84 1.85,1.84 z"
   id="path138" />&#10;	<path
   class="st0"
   d="m 32.52,632.39 c 0.96,0.72 1.43,0.67 1.99,-0.56 0.62,-1.38 1.77,-1.69 3.05,-1.89 0.28,0.06 0.56,0.11 0.84,0.17 0.38,0.12 0.75,0.24 1.13,0.36 1.65,0.51 2.43,1.9 3.3,3.21 0.81,1.22 0.69,2.6 0.65,3.95 -0.03,1.08 -1.43,1.85 -2.42,1.39 -1.04,-0.49 -1.53,-1.37 -1.65,-2.47 -0.16,-1.53 -0.7,-2.07 -2.25,-2.11 -0.85,-0.02 -1.71,-0.09 -2.54,0.02 -1.02,0.13 -1.58,-0.28 -1.89,-1.19 -0.08,-0.22 -0.18,-0.44 -0.27,-0.66 0.02,-0.08 0.04,-0.15 0.06,-0.22 z"
   id="path139" />&#10;	<path
   class="st0"
   d="m 43.67,569.16 c 8.09,-0.01 16.17,-0.03 24.26,-0.04 8.05,0 16.11,0.01 24.16,0.01 0.34,0 0.68,0.03 1.01,0.05 -0.36,0.05 -0.72,0.15 -1.08,0.15 -15.76,0.01 -31.52,0.01 -47.28,0 -0.36,0 -0.72,-0.11 -1.07,-0.17 z"
   id="path140" />&#10;	<path
   class="st0"
   d="m 103.3,633.02 c 0,-10.01 0.01,-20.03 0.01,-30.04 0.06,0.36 0.16,0.72 0.16,1.08 0.01,9.3 0.01,18.59 0,27.89 0,0.35 -0.11,0.71 -0.17,1.07 z"
   id="path141" />&#10;	<path
   class="st0"
   d="m 32.52,632.39 c -0.02,0.07 -0.04,0.14 -0.05,0.21 -0.07,-0.39 -0.19,-0.78 -0.19,-1.17 -0.01,-9.06 -0.02,-18.11 -0.01,-27.17 0,-0.29 0.11,-0.58 0.17,-0.87 0.01,8.82 0.02,17.64 0.03,26.46 0,0.84 0.03,1.69 0.05,2.54 z"
   id="path142" />&#10;	<path
   class="st0"
   d="m 38.4,630.11 c -0.28,-0.06 -0.56,-0.11 -0.84,-0.17 0,-7.74 0,-15.49 0.01,-23.23 0,-0.34 0.03,-0.67 0.05,-1.01 0,-0.02 0.04,-0.05 0.07,-0.05 0.03,0 0.06,0.02 0.1,0.03 0,7.79 0.01,15.57 0,23.36 -0.02,0.53 0.09,0.89 0.61,1.07 z"
   id="path143" />&#10;	<path
   class="st0"
   d="m 98.41,606.05 c 0.05,0.32 0.16,0.65 0.16,0.97 0.01,7.29 0.01,14.58 0,21.88 0,0.34 -0.14,0.68 -0.22,1.03 0.01,-7.45 0.02,-14.9 0.03,-22.35 0,-0.52 0.02,-1.02 0.03,-1.53 z"
   id="path144" />&#10;	<path
   class="st0"
   d="m 59.82,594.45 c -0.39,0.06 -0.78,0.18 -1.17,0.18 -6.13,0.01 -12.26,0.01 -18.39,0.02 0.23,-0.07 0.47,-0.21 0.7,-0.21 6.28,0 12.57,0.01 18.86,0.01 z"
   id="path145" />&#10;	<path
   class="st0"
   d="m 72.25,640.18 c 5.58,-0.01 11.17,-0.02 16.75,-0.03 -0.28,0.06 -0.57,0.18 -0.85,0.18 -5.01,0.01 -10.02,0.01 -15.03,0 -0.29,0.01 -0.58,-0.09 -0.87,-0.15 z"
   id="path146" />&#10;	<path
   class="st0"
   d="m 67.97,528.12 c 0.07,0.32 0.19,0.64 0.19,0.95 0.01,4.54 0.01,9.08 0,13.62 0,0.31 -0.14,0.62 -0.22,0.92 0.02,-5.17 0.03,-10.33 0.03,-15.49 z"
   id="path147" />&#10;	<path
   class="st0"
   d="m 53.88,640.17 c 4.02,-0.01 8.03,-0.02 12.05,-0.04 -0.21,0.07 -0.42,0.2 -0.63,0.2 -3.62,0.01 -7.23,0 -10.85,-0.01 -0.19,0.01 -0.38,-0.09 -0.57,-0.15 z"
   id="path148" />&#10;	<path
   class="st0"
   d="m 72.04,543.65 c -0.06,-0.15 -0.17,-0.31 -0.17,-0.46 0,-3.67 0.02,-7.33 0.04,-11 0.05,0.23 0.14,0.45 0.14,0.68 0,3.59 -0.01,7.18 -0.01,10.78 z"
   id="path149" />&#10;	<path
   class="st0"
   d="m 63.7,627.9 c 0.08,-0.14 0.17,-0.42 0.25,-0.42 3.38,-0.01 6.75,0.01 10.13,0.04 0.06,0 0.13,0.12 0.19,0.19 -3.2,0 -6.4,-0.01 -9.6,0 -0.33,-0.01 -0.65,0.12 -0.97,0.19 z"
   id="path150" />&#10;	<path
   class="st0"
   d="m 88.39,638.1 c -0.07,-0.25 -0.2,-0.5 -0.2,-0.75 -0.02,-3.03 -0.02,-6.07 -0.01,-9.1 0,-0.24 0.14,-0.48 0.22,-0.72 0,0.06 0,0.12 0.01,0.18 -0.01,3.47 -0.02,6.93 -0.02,10.39 z"
   id="path151" />&#10;	<path
   class="st0"
   d="m 97.14,594.65 c -3.18,-0.01 -6.37,-0.01 -9.55,-0.02 -0.36,0 -0.72,-0.1 -1.07,-0.16 3.37,-0.01 6.74,-0.03 10.11,-0.03 0.16,0.01 0.34,0.14 0.51,0.21 z"
   id="path152" />&#10;	<path
   class="st0"
   d="m 50.4,627.52 c 0.08,0.21 0.22,0.41 0.22,0.62 0.01,2.46 0.01,4.92 0,7.38 0,0.19 -0.11,0.37 -0.16,0.56 -0.02,-2.79 -0.04,-5.58 -0.06,-8.36 0.01,-0.07 0.01,-0.14 0,-0.2 z"
   id="path153" />&#10;	<path
   class="st0"
   d="m 48.6,637.29 c 0,0.84 0,1.68 0,2.66 1.34,0 2.58,-0.02 3.82,0.01 0.49,0.01 0.99,0.12 1.48,0.18 -1.63,0 -3.26,0.02 -4.89,-0.01 -0.21,0 -0.59,-0.24 -0.59,-0.36 0.02,-0.83 0.11,-1.66 0.18,-2.48 z"
   id="path154" />&#10;	<path
   class="st0"
   d="m 38.39,601 c -1.16,-0.03 -2.32,-0.06 -3.48,-0.09 1.3,-0.05 2.59,-0.1 3.89,-0.14 0.56,-0.02 1.13,0 1.76,0 0.02,-0.38 0.03,-0.67 0.05,-0.96 0.09,0.33 0.17,0.66 0.31,1.2 C 39.96,601 39.18,601 38.39,601 Z"
   id="path155" />&#10;	<path
   class="st0"
   d="m 50.4,627.52 c 0.01,0.06 0.01,0.13 0,0.19 -1.95,-0.01 -3.9,0 -5.86,-0.03 -0.36,0 -0.71,-0.1 -1.07,-0.15 2.31,0 4.62,0 6.93,-0.01 z"
   id="path156" />&#10;	<path
   class="st0"
   d="m 88.41,627.72 c -0.01,-0.06 -0.01,-0.12 -0.01,-0.18 2.17,-0.02 4.34,-0.04 6.5,-0.06 -0.34,0.07 -0.68,0.21 -1.03,0.21 -1.82,0.02 -3.64,0.02 -5.46,0.03 z"
   id="path157" />&#10;	<path
   class="st0"
   d="m 75.12,592.82 c -0.73,0.06 -1.46,0.16 -2.19,0.17 -1.46,0.02 -2.91,-0.01 -4.37,-0.01 2.18,-0.05 4.37,-0.11 6.56,-0.16 z"
   id="path158" />&#10;	<path
   class="st0"
   d="m 74.29,630.35 c 0,1.37 0,2.74 0,4.11 0.37,0.15 0.69,0.28 1.01,0.4 -0.36,-0.02 -0.73,-0.04 -1.3,-0.07 0.1,-1.53 0.2,-2.98 0.29,-4.44 z"
   id="path159" />&#10;	<path
   class="st0"
   d="m 76.36,564.86 c -1.56,0.05 -3.12,0.1 -4.68,0.15 0,-0.12 -0.01,-0.24 -0.01,-0.36 1.06,0.06 2.11,0.13 3.17,0.19 0.51,0.03 1.01,0.02 1.52,0.02 z"
   id="path160" />&#10;	<path
   class="st0"
   d="m 71.9,531.19 c 0.04,-1.24 0.08,-2.49 0.12,-3.73 -0.04,1.24 -0.08,2.48 -0.12,3.73 z"
   id="path161" />&#10;	<path
   class="st0"
   d="m 95.52,612.61 c 0.05,-0.28 0.11,-0.55 0.16,-0.83 -0.05,0.27 -0.1,0.55 -0.16,0.83 z"
   id="path162" />&#10;	<path
   class="st1"
   d="m 60.02,564.99 c -0.13,0 -0.27,-0.01 -0.4,-0.01 0.01,-0.05 0.01,-0.09 -0.01,-0.14 0.93,-0.98 1.87,-1.95 2.79,-2.94 2.2,-2.34 4.4,-4.68 6.59,-7.02 1.7,-1.82 3.37,-3.67 5.09,-5.46 0.74,-0.77 1.68,-1.2 2.82,-1.13 0.95,0.07 1.91,0.01 3.05,0.01 -0.21,0.41 -0.24,0.55 -0.33,0.63 -2.94,3.08 -5.88,6.17 -8.82,9.24 -2.14,2.23 -4.29,4.46 -6.44,6.68 -0.64,0.11 -1.27,0.23 -1.91,0.34 -0.13,0 -0.26,0 -0.4,0 -0.6,-0.69 -1.33,-0.32 -2.03,-0.2 z"
   id="path163" />&#10;	<path
   class="st1"
   d="m 67.86,546.89 c 0.57,1.77 -0.77,2.6 -1.65,3.57 -2.84,3.12 -5.72,6.2 -8.62,9.26 -1.53,1.62 -3.13,3.18 -4.71,4.76 -0.42,0.41 -2.74,0.81 -3.16,0.5 -0.15,-0.11 -0.2,-0.59 -0.09,-0.78 2.25,-3.61 4.8,-6.98 7.94,-9.88 2.05,-1.9 3.96,-3.95 6.03,-5.83 1.18,-1.06 2.63,-1.66 4.26,-1.6 z"
   id="path164" />&#10;	<path
   class="st0"
   d="m 60.02,564.99 c 0.7,-0.12 1.43,-0.49 2.04,0.22 -0.68,-0.07 -1.36,-0.14 -2.04,-0.22 z"
   id="path165" />&#10;	<path
   class="st0"
   d="m 62.46,565.22 c 0.64,-0.11 1.27,-0.23 1.91,-0.34 -0.64,0.11 -1.28,0.22 -1.91,0.34 z"
   id="path166" />&#10;	<path
   class="st0"
   d="m 59.61,564.84 c 0.02,0.04 0.02,0.09 0.01,0.14 -0.05,-0.01 -0.11,-0.02 -0.16,-0.04 0.05,-0.03 0.1,-0.06 0.15,-0.1 z"
   id="path167" />&#10;	<path
   class="st0"
   d="m 80.6,604.68 c 1.94,0.67 2.28,1.33 -0.95,1.97 -0.46,0.09 -0.44,0.22 -0.64,0.34 -0.26,0.01 -0.53,0.02 -0.79,0.03 -0.13,-0.01 -0.25,-0.02 -0.37,-0.01 -0.09,0 -0.25,0.02 -0.25,0.03 -0.07,0.17 -0.18,0.34 -0.18,0.5 -0.02,3.86 -0.02,7.73 -0.03,11.59 -4.96,0.1 -9.43,0.25 -11.85,0.94 -2.16,0.61 -4.01,0.64 -7.73,0.28 -0.07,-0.42 -0.19,-0.85 -0.19,-1.27 -0.05,-4.4 -0.08,-8.8 -0.11,-13.2 2.1,-0.55 3.83,-1.15 9.57,-1.24 4.5,0.01 9.01,0.03 13.52,0.04 z"
   id="path168" />&#10;	<circle
   class="st1"
   cx="68.559998"
   cy="603.21997"
   r="2.52"
   id="circle168" />&#10;	<circle
   class="st1"
   cx="68.559998"
   cy="612.19"
   r="2.52"
   id="circle169" />&#10;	<circle
   class="st1"
   cx="68.559998"
   cy="621.16998"
   r="2.52"
   id="circle170" />&#10;	<g
   id="g178">&#10;		<path
   d="m 159.3,630.79 c -0.81,0.48 -1.74,0.64 -2.64,0.64 -0.39,0 -0.93,0 -1.32,-0.1 -0.13,-0.03 -0.32,-0.23 -0.45,-0.23 -0.42,0 -0.8,0.23 -1.22,0.23 -0.16,0 -0.39,-0.19 -0.58,-0.23 -0.29,-0.06 -0.61,0 -0.9,0 -0.45,0 -0.84,-0.1 -1.13,-0.45 -2.09,-0.19 -3.99,-1.26 -6.08,-1.45 -0.26,-0.26 -0.68,-0.32 -0.81,-0.68 -0.19,0 -0.23,0.1 -0.45,0.1 -1.42,-1.19 -3.41,-1.48 -4.83,-2.71 h -0.13 c -0.32,0.03 -0.55,-0.26 -0.87,-0.26 -0.1,0 -0.16,0 -0.26,0.03 -0.26,-0.64 -1.06,-0.74 -1.35,-1.35 -1.03,-0.39 -2.06,-0.87 -2.8,-1.71 -0.84,-0.1 -1.35,-0.55 -1.8,-1.22 -2.06,-0.64 -3.16,-2.42 -5.44,-2.83 -0.1,-0.61 -0.97,-0.42 -1.22,-0.9 -0.13,0 -0.26,-0.03 -0.39,-0.03 -0.13,0 -0.29,0.03 -0.42,0.03 l 0.03,-0.1 c 0.03,-0.39 -0.58,0 -0.58,-0.58 h -0.1 c -0.48,0 -0.8,-0.26 -1.26,-0.32 -0.06,0.42 -0.06,0.84 -0.06,1.22 0,1.87 0.42,4.12 1.29,5.76 0.87,0.29 1.45,0.9 2.03,1.58 0.03,1.16 -0.97,2.03 -2.09,2.03 -0.64,0 -1.19,-0.32 -1.51,-0.9 -0.26,0 -0.45,0.13 -0.71,0.13 -0.06,0 -0.1,0 -0.19,-0.03 -0.42,-0.68 -0.9,-1.13 -1,-2.03 -0.48,-0.19 -0.42,-0.9 -0.81,-1.22 -0.16,-1.9 -0.51,-3.77 -0.51,-5.67 0,-0.42 0.03,-0.87 0.06,-1.32 -0.06,-0.23 -0.23,-0.39 -0.32,-0.58 -0.87,0.19 -1.77,0.42 -2.67,0.42 -0.58,0 -1.61,-0.19 -2.06,-0.51 -0.32,-0.26 -0.45,-0.93 -0.45,-1.32 0,-0.71 0.26,-1.51 0.68,-2.06 2.06,-0.84 3.8,-2.09 5.51,-3.51 0.03,-0.42 0.19,-0.84 0.19,-1.29 0,-0.26 -0.06,-0.51 -0.19,-0.74 0.26,-0.26 0.13,-0.71 0.35,-1.03 v -0.19 c 0,-0.16 0,-0.35 -0.13,-0.48 0.29,-1.64 0.45,-3.25 0.45,-4.96 0,-0.13 0.23,-0.87 0.26,-1.09 0.16,-0.97 0.19,-1.93 0.32,-2.87 0.03,-0.32 0.23,-1 0.23,-1.22 0,-0.29 -0.16,-0.32 -0.23,-0.55 0.26,-0.97 0.19,-1.96 0.32,-2.93 0.68,-0.29 0.97,-0.68 1.74,-0.68 h 0.06 c 0.16,0.97 1.35,1.83 1.35,2.58 0,0.71 -0.16,1.64 -0.23,2.35 -0.19,1.87 -0.32,3.7 -0.68,5.54 0.06,0.29 0.1,0.55 0.1,0.84 0,0.74 -0.19,1.51 -0.19,2.29 0,0.39 0.06,0.8 0.23,1.16 0.74,-0.19 1.38,-0.58 1.93,-1.16 0.16,-0.16 0.35,-0.48 0.55,-0.64 0.42,-0.32 0.93,-0.61 1.38,-0.9 1.06,-0.74 2.12,-1.48 3.16,-2.25 3.09,-2.25 6.02,-4.73 8.76,-7.44 0.13,-0.71 0.61,-1 0.9,-1.58 0.39,-0.16 0.74,-0.39 1.03,-0.68 0.45,0.19 1.13,0 1.58,0.22 0.03,0.61 0.06,1.09 0.45,1.58 0,0.1 0.03,0.16 0.03,0.26 0,0.45 -0.35,0.68 -0.39,1.09 -1.13,1.06 -2.25,2.12 -3.16,3.38 -0.71,0.1 -0.93,0.74 -1.58,0.9 -1.55,2.03 -3.96,3.06 -5.63,4.96 -0.87,0.42 -1.74,0.97 -2.25,1.8 h -0.16 c -0.19,0 -0.32,0.13 -0.52,0.13 -2.25,1.96 -4.8,3.61 -6.99,5.63 v 0.8 c 1.45,0.84 3.41,1.35 4.51,2.71 0.06,-0.03 0.1,-0.03 0.16,-0.03 0.39,0 0.48,0.32 0.97,0.26 0.16,0.68 0.87,0.9 1.45,1.13 0.52,0.48 0.84,1 1.61,1.13 0.1,0.16 0.1,0.39 0.23,0.55 1.64,0.55 2.83,1.96 4.51,2.48 0.13,0.39 0.58,0.48 0.77,0.8 h 0.58 c 0.13,0.23 0.35,0.39 0.45,0.68 0.35,0.06 0.84,0.23 1.13,0.45 0.13,0.13 0.16,0.32 0.32,0.45 0.26,0.19 0.9,0.26 1.26,0.45 0.77,0.42 1.45,1 2.25,1.45 l 1.22,0.68 c 0.39,0.22 0.74,0.51 1.13,0.68 0.74,0.35 1.71,0.32 2.38,0.68 0.19,0.13 0.26,0.35 0.45,0.45 0.32,0.23 1.22,0.26 1.67,0.45 0.58,0.26 1.16,0.48 1.71,0.8 2.51,0.1 4.93,0.97 7.44,0.9 0,0.1 0.16,0.1 0.23,0.1 0.26,0.45 0.52,0.9 0.52,1.42 -0.01,0.21 -0.08,0.44 -0.18,0.63 z"
   id="path170" />&#10;		<path
   d="m 160.04,606.16 c 0,0.48 0.03,0.97 0.03,1.45 v 0.45 c -0.1,0.29 -0.29,0.61 -0.39,0.9 -0.29,0.74 -0.42,1.51 -0.42,2.32 v 0.06 c -0.39,1.03 -0.87,1.51 -0.81,2.7 -0.55,1.48 -1.67,2.58 -2.58,3.83 -0.87,0.35 -1.61,0.9 -2.25,1.58 -1.29,0.39 -2.61,0.9 -3.61,1.8 -0.8,0.1 -1.61,0.26 -2.38,0.58 h -0.35 c -0.16,0 -0.32,-0.03 -0.42,-0.13 -0.55,0.29 -1.16,0.39 -1.74,0.39 -0.74,0 -1.48,-0.13 -2.22,-0.26 -0.42,-0.61 -1.29,-0.84 -1.9,-1.13 -1.22,-1.67 -1.58,-3.16 -2.16,-5.09 0.06,-0.61 0.39,-1.16 0.35,-1.8 0.74,-2.16 2.03,-3.9 3.61,-5.54 0,-0.26 0.16,-0.35 0.1,-0.68 0.03,0.03 0.1,0.03 0.13,0.03 0.32,0 0.35,-0.23 0.32,-0.48 1.51,-0.93 2.61,-2.42 4.19,-3.25 0.13,-0.35 0.52,-0.55 0.68,-0.9 1.32,-0.39 2.35,-1.26 3.54,-1.87 0.68,-0.35 1.26,-0.45 1.96,-0.61 0.26,-0.06 0.42,-0.13 0.68,-0.13 0.77,0 1.45,0.42 2.22,0.42 0.16,0 0.32,-0.03 0.48,-0.06 0.39,0.45 0.84,0.77 1.35,1 0.48,1.22 1.64,1.71 1.84,3.16 -0.25,0.36 -0.25,0.87 -0.25,1.26 z m -2.93,0.1 c -0.39,-0.13 -0.77,-0.42 -1.22,-0.42 -0.16,0 -0.29,0.03 -0.45,0.1 -0.06,-0.58 -0.8,-0.48 -1.13,-0.8 -0.13,-0.32 -0.23,-0.74 -0.58,-0.9 -0.77,0.74 -2.16,0.8 -2.8,1.71 h -0.58 c -0.26,0.45 -0.81,0.58 -1.13,1 -1.35,0.71 -2.19,2 -3.38,2.93 -1.09,2.35 -2.83,3.16 -2.83,6.15 0,0.19 0,0.42 0.03,0.64 0.52,0.58 0.74,1.38 1.58,1.67 0.84,0.29 1.8,0.1 2.7,0.35 2,-0.35 3.9,-1.29 5.54,-2.48 0.26,-0.19 0.64,-0.45 0.87,-0.68 0.19,-0.19 0.32,-0.52 0.48,-0.71 0.35,-0.55 0.77,-1.09 1.22,-1.58 0.42,-1.8 1.51,-3.35 1.51,-5.28 0,-0.23 -0.03,-0.45 -0.06,-0.68 0.16,-0.23 0.26,-0.52 0.26,-0.77 0,-0.09 0,-0.16 -0.03,-0.25 z"
   id="path171" />&#10;		<path
   d="m 182.93,603.78 c -0.81,0.1 -0.81,1 -1.26,1.48 0.32,1.51 0.29,3.09 0.45,4.6 0.19,1.9 0.81,3.77 0.81,5.7 0,0.55 -0.03,1.06 -0.03,1.58 0,0.35 0.03,0.71 0.03,1.06 0,1.22 -0.42,2.42 -0.58,3.64 -0.97,0.93 -1.29,2.25 -2.8,2.48 -0.13,0.42 -0.58,0.55 -0.8,0.9 h -0.06 c -2.12,0 -2.8,-1.32 -4.57,-1.8 -1.16,-0.97 -2.03,-2.25 -3.25,-3.16 -0.26,-0.84 -0.84,-1.29 -1.29,-1.96 -0.19,-0.29 -0.29,-0.55 -0.42,-0.87 -0.13,-0.29 -0.45,-0.39 -0.68,-0.55 -0.32,-1.29 -0.97,-2.38 -1.8,-3.38 -0.55,0.9 -0.48,2.16 -1.13,3.03 v 0.1 c 0,0.19 0.26,0.19 0.26,0.39 0,0.03 -0.03,0.06 -0.03,0.1 -0.23,0.16 -0.23,0.52 -0.55,0.55 0.03,0.19 0.03,0.42 0.03,0.61 0,1.22 -0.42,2.42 -0.42,3.67 0,0.26 0,0.55 0.03,0.81 0.06,0.26 0.32,0.55 0.32,0.74 0,0.16 -0.1,0.29 -0.19,0.39 0.58,0.45 1.58,1.03 1.58,1.87 0,1.42 -2.16,0.93 -3.06,1.74 h -0.1 c -0.52,0 -0.64,-0.45 -1.13,-0.45 -0.81,-1.29 -1.03,-3.03 -1.03,-4.51 0,-3.64 1.38,-7.12 2.25,-10.62 0,-0.03 0.03,-0.06 0.03,-0.1 0,-0.16 -0.16,-0.23 -0.16,-0.39 0,-0.03 0,-0.06 0.03,-0.06 0.13,-0.42 0.29,-0.81 0.39,-1.22 0.52,-2.42 0.23,-4.93 0.61,-7.34 0.35,-0.32 0.61,-0.74 1.03,-1.03 0.87,0.03 1.71,0.23 2.48,0.68 0.48,1.8 0.52,3.64 1,5.41 v 0.1 c 0,0.23 0.32,0.1 0.45,0.26 -0.1,0.13 -0.1,0.32 -0.1,0.48 v 0.52 c 0.1,0.32 0.16,0.8 0.55,0.9 0.45,2.67 1.74,4.41 3.06,6.66 2.12,1.61 2.61,4.38 5.76,4.73 0.39,-0.39 0.32,-1.22 0.9,-1.45 0.06,-1.16 0.13,-2.45 0.55,-3.51 -0.13,-0.23 -0.16,-0.45 -0.16,-0.71 0,-0.39 0.1,-0.77 0.1,-1.16 0,-0.35 -0.06,-0.68 -0.26,-0.97 0,-0.29 0.03,-0.64 0.23,-0.9 -0.32,-0.87 -0.55,-1.8 -0.55,-2.74 0,-0.29 0.03,-0.58 0.1,-0.87 -0.55,-1.26 -0.13,-3.64 -1.03,-4.51 0.13,-0.19 0.19,-0.45 0.19,-0.68 0,-0.8 -0.39,-1.58 -0.39,-2.38 0,-0.32 0.06,-0.61 0.19,-0.87 0.9,0.03 1.8,0.23 2.7,0.23 0.45,0.71 1.51,0.71 1.93,1.45 -0.08,0.49 -0.28,0.78 -0.21,1.33 z"
   id="path172" />&#10;		<path
   d="m 209.87,617.43 c -0.03,0.84 -1,1 -1.48,1.48 -0.16,0.16 -0.19,0.45 -0.35,0.55 -0.48,0.35 -1.26,0.1 -1.67,0.68 -1.96,0.19 -3.86,0.68 -5.86,0.68 -0.39,0 -0.84,0.1 -1.22,0.13 -0.87,0.06 -1.74,0.13 -2.61,0.13 -1.22,0 -2.45,-0.1 -3.61,-0.35 -0.58,-0.45 -1.67,-0.39 -2.03,-1.03 -1.29,-0.13 -1.77,-0.93 -2.83,-1.35 -0.39,-0.61 -0.81,-1.22 -1.45,-1.58 -0.26,-1.64 -1.19,-3.12 -1.19,-4.8 0,-1.16 0.71,-3.57 1.51,-4.44 0.13,-0.16 0.32,-0.19 0.45,-0.35 0.39,-0.42 0.8,-0.64 1.26,-1 0.16,-0.16 0.26,-0.42 0.45,-0.58 0.1,-0.1 0.39,0.03 0.55,-0.1 0.16,-0.13 0.1,-0.32 0.23,-0.45 0.03,-0.03 0.35,0 0.39,0 0.26,0 0.71,-0.55 0.97,-0.68 0.29,-0.16 0.61,-0.19 0.9,-0.35 0.45,-0.23 0.9,-0.35 1.35,-0.55 0.26,-0.13 0.45,-0.35 0.68,-0.45 0.77,-0.29 1.71,-0.1 2.38,-0.68 h 0.26 c 0.74,0 1.45,-0.29 2.19,-0.29 0.16,0 0.32,0.03 0.48,0.06 0.16,-0.1 0.35,-0.16 0.55,-0.16 0.74,0 1.42,0.51 2.19,0.51 0.13,0 0.29,0 0.42,-0.03 0.48,0.48 1.19,0.32 1.67,0.68 0.64,0.48 0.61,1.42 1.03,2.03 -0.16,1.51 -1.32,2.51 -2.83,2.51 -1.22,0 -1.45,-0.68 -2.35,-0.8 0.23,-0.42 0.39,-0.87 0.45,-1.35 -0.45,-0.19 -0.93,-0.26 -1.35,-0.45 -1.13,0.29 -2.22,0.19 -3.16,1 -0.23,-0.03 -0.42,-0.1 -0.64,-0.1 -0.52,0 -3.41,1.64 -3.99,2.03 -0.68,0.42 -0.97,1.29 -1.67,1.58 -0.1,0.45 -0.32,0.77 -0.58,1.13 -0.03,0.77 -0.16,1.51 -0.16,2.29 0,0.26 0,0.52 0.06,0.74 0.39,0.55 0.55,1.35 1.22,1.61 0.03,0.16 -0.06,0.16 -0.1,0.32 0.48,0.87 1.67,1.03 2.12,1.93 1.29,-0.03 2.22,1 3.22,1 0.23,0 0.42,-0.03 0.61,-0.1 1.09,0.35 2.22,0.48 3.35,0.48 1.38,0 2.77,-0.23 4.15,-0.35 0.48,-0.06 0.97,-0.06 1.42,-0.13 0.55,-0.1 1.09,-0.68 1.58,-0.9 0.26,0.16 0.55,0.22 0.84,0.22 0.71,0 1.38,-0.35 2.06,-0.35 h 0.14 z"
   id="path173" />&#10;		<path
   d="m 215.63,619.68 c -0.58,0.26 -1.45,-0.13 -1.74,0.22 -0.35,-0.13 -0.42,-0.42 -0.84,-0.48 -0.1,0 -0.16,0 -0.26,0 -0.61,-0.68 -1.13,-1.51 -1.61,-2.25 -0.03,-0.8 -0.06,-1.58 -0.16,-2.35 -0.06,-0.39 -0.16,-0.74 -0.19,-1.09 0,-0.39 0.06,-0.8 0.13,-1.16 0.16,-1.22 0.42,-2.38 0.58,-3.61 0.13,-1.06 0.19,-2.35 -0.19,-3.38 v -0.13 c 0.03,-0.32 0.19,-0.58 0.23,-0.87 0.03,-0.19 0,-0.35 -0.16,-0.45 0.16,-0.35 0.55,-0.32 0.58,-0.71 0.03,-0.1 0.03,-0.16 0,-0.26 0.32,-0.13 0.71,-0.26 1.03,-0.19 0.52,0.06 0.93,0.42 1.32,0.71 1.38,3.99 -1.22,9.24 0.32,12.91 h 0.06 c 0.23,0.06 0.26,-0.23 0.48,-0.19 0.06,0.03 0.1,0.06 0.16,0.06 0.19,0.84 0.61,1.58 1.06,2.32 -0.22,0.32 -0.54,0.61 -0.8,0.9 z"
   id="path174" />&#10;		<path
   d="m 239.33,603.23 c -0.13,0.03 -0.23,0.16 -0.23,0.32 -0.48,0.16 -1,0.23 -1.45,0.45 -0.48,-0.03 -0.93,-0.06 -1.42,-0.06 -1.26,0 -2.51,0.13 -3.77,0.06 -0.61,0.32 -1.32,0.55 -1.96,0.55 -0.23,0 -0.45,-0.03 -0.64,-0.1 -2,1.03 -4.99,1.06 -6.66,2.48 -0.06,0.58 -0.13,1.16 -0.13,1.71 0,0.55 0.06,1.06 0.26,1.58 0.23,0.06 0.48,0.13 0.71,0.13 0.19,0 0.45,-0.03 0.55,-0.26 0.61,-0.06 1.26,-0.03 1.87,-0.03 0.64,0 1.26,-0.03 1.83,-0.19 1.35,-0.35 2.51,-0.03 3.96,-0.68 0.55,0.19 1.13,0.16 1.67,0.23 0.29,0.19 0.52,0.45 0.52,0.8 0,0.58 -0.58,1.19 -0.84,1.67 h -0.35 c -2.03,0 -3.7,1.35 -5.73,1.35 -0.16,0 -0.16,0.26 -0.23,0.35 -0.16,-0.03 -0.32,-0.03 -0.48,-0.03 -0.93,0 -1.8,0.32 -2.74,0.32 -0.26,0 -0.48,-0.03 -0.74,-0.06 -0.19,0.32 -0.61,0.35 -0.9,0.58 -0.23,0.8 0.06,2.32 -0.45,2.93 0.03,0.23 0.45,-0.03 0.45,0.32 0,0.39 -0.1,0.8 -0.1,1.22 0,1.61 0.64,3.99 2.64,3.99 0.64,0 1.29,-0.26 1.64,-0.8 l 0.16,-0.03 c 0.16,0 0.32,0.06 0.48,0.06 0.48,0 1.71,-1.51 2.61,-1.83 0.29,-0.55 0.52,-1.22 1.03,-1.58 v -0.9 c 0.42,-0.45 0.97,-0.77 1.22,-1.35 0.19,0.06 0.42,0.13 0.61,0.13 0.23,0 0.45,-0.06 0.64,-0.13 0.32,0.48 0.48,1.06 0.77,1.58 -0.74,1.51 -2.09,4.44 -3.38,5.51 -0.1,0.1 -0.26,0.16 -0.39,0.23 -0.45,0.29 -0.87,0.61 -1.19,1.03 -1.22,0.35 -2.29,1.06 -3.38,1.67 -0.26,-0.06 -0.55,-0.1 -0.81,-0.1 -0.52,0 -1.03,0.1 -1.58,0.1 -0.16,-0.19 -0.64,-0.16 -0.55,-0.55 -2.83,-0.19 -3.35,-3.03 -4.19,-5.18 v -0.1 c 0,-0.19 0.26,-0.19 0.26,-0.39 0,-0.03 0,-0.06 -0.03,-0.1 -0.13,-0.42 -0.23,-0.74 -0.23,-1.19 0,-0.64 0.13,-1.32 0.13,-1.96 0,-0.29 -0.03,-0.61 -0.13,-0.9 0.39,-0.42 0.29,-1.45 0.45,-2.03 -0.16,-0.45 -0.32,-0.77 -0.32,-1.26 v -0.23 c 0.42,-0.71 0.68,-1.48 1,-2.25 v -0.1 c 0,-1.22 -0.13,-2.45 -0.13,-3.67 0,-0.39 0,-0.8 0.03,-1.19 0.32,-0.16 0.45,-0.51 0.77,-0.68 h 1.03 c 0.13,-0.19 0.29,-0.42 0.32,-0.68 0.48,-0.13 0.9,-0.39 1.29,-0.61 1.19,-0.71 1.83,-1.06 3.25,-1.19 0.29,-0.03 0.35,-0.16 0.55,-0.32 0.52,0.06 1,0.16 1.51,0.16 0.51,0 0.97,-0.1 1.42,-0.29 1.26,0 2.48,-0.06 3.73,-0.06 1.09,0 2.19,0.06 3.25,0.29 0.19,-0.06 0.42,-0.1 0.61,-0.1 0.52,0 1.03,0.16 1.55,0.1 0.03,0.42 0.32,0.71 0.32,1.13 v 0.13 z"
   id="path175" />&#10;		<path
   d="m 277.06,618.85 c -0.19,-0.06 -0.39,-0.1 -0.58,-0.1 -1.29,-0.06 -2.41,0.52 -3.64,0.68 -0.39,0.03 -0.74,0.03 -1.13,0.06 -2.67,0.39 -6.15,0.45 -8.63,1.42 -0.13,-0.1 -0.26,-0.19 -0.42,-0.19 -0.42,-0.03 -0.77,0.19 -1.16,0.13 -0.84,0.55 -1.96,0.26 -2.74,0.9 -0.32,-0.16 -0.97,-0.1 -1.13,-0.39 -1,0.45 -2.09,0.55 -3.16,0.51 -1.42,-0.06 -3.96,-0.68 -4.8,-1.9 -0.29,-0.39 -0.29,-1 -0.77,-1.26 0.16,-0.97 0.32,-1.9 0.48,-2.8 0.84,-0.71 1.58,-1.51 2.29,-2.38 1.58,-0.81 2.7,-2.29 4.28,-3.12 0.26,-0.58 1.03,-0.68 1.19,-1.38 1.45,-0.87 2.67,-2.22 2.99,-3.93 -0.74,-0.55 -1.67,-0.71 -2.61,-0.77 -0.87,-0.03 -1.77,0.03 -2.67,-0.03 -1.87,0.58 -3.96,0.1 -5.67,1.09 -0.16,0 -0.32,-0.03 -0.48,-0.06 -1.35,-0.06 -2.48,0.71 -3.64,1.22 -0.03,0.06 -0.03,0.13 -0.03,0.19 -0.03,0.26 0.13,0.48 0.13,0.74 0,0.03 0,0.1 -0.03,0.1 -0.06,0.19 -0.16,0.39 -0.19,0.58 -0.23,0.68 -0.35,1.32 -0.39,2 -0.03,1.06 0.03,2.12 0,3.19 -0.03,0.64 -0.13,1.29 -0.32,1.9 0.39,2.03 0.61,4.44 1.74,6.28 -0.06,0.19 0.35,0.13 0.42,0.13 0.1,0 0.16,0.03 0.13,0.13 0.06,0.13 0.1,0.26 0.23,0.32 0.03,0.06 0.03,0.13 0,0.23 -0.03,0.84 -0.61,1.51 -0.68,2.35 -0.23,0.06 -0.45,0.1 -0.68,0.06 -1.42,-0.06 -2.09,-1.61 -3.06,-2.38 -0.26,-1.13 -0.45,-2.77 -1.09,-3.73 0.1,-0.23 0.13,-0.48 0.13,-0.71 0.03,-0.84 -0.23,-1.67 -0.19,-2.51 0,-0.45 0.16,-0.87 0.19,-1.35 0.03,-0.71 -0.26,-1.38 -0.23,-2.09 0.03,-0.32 0.13,-0.68 0.35,-0.9 -0.1,-0.26 -0.13,-0.52 -0.1,-0.74 0.03,-0.68 0.19,-1.29 0.23,-1.93 0.03,-0.32 0,-0.64 -0.1,-0.93 -0.1,-0.06 -0.19,-0.1 -0.29,-0.1 -0.52,-0.03 -0.84,0.61 -1.06,0.61 -0.1,0 -0.19,-0.06 -0.29,-0.06 -0.13,0 -1.13,0.77 -1.45,0.84 -0.87,-0.13 -0.97,-1.06 -1.77,-0.97 -0.13,-0.26 -0.1,-0.58 -0.1,-0.87 l 0.03,-0.48 c 0.58,-1.09 2.03,-1.25 2.93,-2 h 0.26 c 1.48,0.06 2.16,-1.54 3.45,-2 0.45,0.19 0.97,0.35 1.48,0.39 0.55,0.03 1.19,-0.13 1.55,-0.58 0.19,0.06 0.35,0.06 0.55,0.1 0.64,0.03 1.29,-0.26 1.87,-0.58 1.67,0.06 3.25,-0.71 4.93,-0.64 1.38,0.06 2.7,-0.39 4.09,-0.32 0.97,0.03 1.9,0.16 2.87,0.13 0.55,0.26 0.93,0.48 1.58,0.45 0.68,0.58 1.29,1.22 1.8,1.96 0.03,0.19 0,0.35 0,0.52 -0.06,1.96 -1.26,3.7 -2.06,5.41 -2.74,2.45 -5.41,4.93 -8.31,7.18 -0.06,0.39 -0.29,0.71 -0.32,1.09 0,0.1 0,0.16 0.03,0.26 0.29,0.1 0.58,0.32 0.52,0.71 l 0.29,-0.03 c 0.06,0 0.16,0.03 0.16,0.13 l 0.48,0.03 c 3.22,0.13 6.38,-0.74 9.59,-0.81 0.35,-0.13 0.84,-0.16 1.16,-0.39 0.03,-0.03 0.06,-0.03 0.1,-0.03 0.29,0 0.35,0.26 0.64,0.29 0.23,0 0.45,-0.13 0.71,-0.16 0.61,-0.16 1.26,-0.19 1.9,-0.26 2.38,-0.19 4.8,-0.1 7.18,-0.64 0.42,0.61 1.71,0.26 2,1 -0.06,0.61 -0.48,0.86 -0.96,1.19 z"
   id="path176" />&#10;		<path
   d="m 300.14,606.93 -0.06,0.03 c -0.32,0 -0.23,-0.48 -0.48,-0.48 -0.45,0 -0.9,0.13 -1.32,0.13 -0.29,0 -0.58,-0.03 -0.84,-0.13 -0.29,0.06 -0.19,0.48 -0.45,0.58 -0.23,0.06 -0.55,0.03 -0.8,0.1 -0.68,0.13 -1.35,0.39 -2.03,0.39 -0.16,0 -0.29,0 -0.42,-0.03 -1.22,1.03 -3.35,0.61 -4.64,1.9 -0.13,-0.03 -0.29,-0.06 -0.45,-0.06 -0.51,0 -0.93,0.32 -1.38,0.51 -0.22,0.1 -0.42,0.06 -0.64,0.13 -0.26,0.06 -0.26,0.32 -0.45,0.45 0,1.51 0.45,2.99 0.45,4.51 v 0.13 c 0.06,0.68 0.61,1.29 0.61,1.93 0,0.1 -0.03,0.23 -0.06,0.32 2.19,0.48 0.87,3.96 3.19,4.38 0.1,0.42 0.13,0.87 0.13,1.29 0,0.58 -0.1,1.19 -0.48,1.64 -0.61,0.03 -0.74,-0.03 -1.35,0.23 -1.64,-1 -2.51,-2.74 -3.73,-4.15 -2.16,0.51 -4.51,0.68 -6.76,0.68 -0.19,0.13 -0.74,-0.03 -0.68,0.32 -0.26,-0.16 -0.68,-0.23 -0.97,-0.23 -0.23,0 -0.42,0 -0.61,0.13 -1.58,-0.29 -3.06,-0.93 -4.6,-1.26 0,-0.32 -0.23,-0.42 -0.35,-0.68 -1.74,-1.13 -3.16,-2.61 -2.93,-4.83 l -0.23,-0.45 c 0,-0.26 0.03,-0.52 0.23,-0.71 -0.1,-0.19 -0.26,-0.32 -0.45,-0.45 0.39,-0.58 0.68,-1.22 0.81,-1.9 0.03,-0.19 0.03,-0.39 0.1,-0.58 0.1,-0.26 0.26,-0.58 0.39,-0.84 0.64,-1.42 1.42,-2.83 2.67,-3.77 0.16,-1.45 1.51,-1.74 1.9,-2.93 0.84,-0.71 1.77,-1.32 2.38,-2.25 0.74,-0.23 1.45,-0.61 1.9,-1.26 1.03,-0.06 2,-0.48 3.06,-0.48 0.48,0 1.26,0.16 1.58,0.61 0.13,0.16 0,0.51 0.32,0.45 0,0.9 -0.1,2 -1,2.48 -0.29,-0.1 -0.58,-0.13 -0.87,-0.13 -1.64,0 -2.7,1.45 -4.22,1.8 -0.06,0.32 -0.16,0.58 -0.1,0.9 -0.19,0 -0.29,-0.1 -0.45,-0.1 -0.29,0 -0.35,0.48 -0.45,0.68 -1.61,0.64 -1.84,2.7 -3.38,3.38 -0.32,1.32 -0.61,2.64 -1.03,3.93 0.06,0.26 0.1,0.55 0.1,0.8 0,0.29 -0.03,0.61 -0.1,0.9 0.45,0.64 0.93,2.09 1.48,2.48 0.45,0.35 1.61,0.51 2.35,1.13 0.1,0 0.23,-0.03 0.32,-0.03 0.52,0 1.22,0.39 1.38,0.39 2.32,0 5.35,-0.39 7.66,-0.8 0.03,-0.16 0.06,-0.35 0.06,-0.55 0,-0.52 -0.16,-1.09 -0.51,-1.48 0,-0.61 0.03,-1.26 0.03,-1.87 0,-1.06 -0.03,-2.32 -0.39,-3.32 h -0.06 c -0.55,0 -0.97,0.42 -1.42,0.42 -0.1,0 -0.23,-0.03 -0.32,-0.1 -1.03,1.16 -2.99,1 -4.28,1.93 -0.13,-0.06 -0.29,-0.1 -0.45,-0.1 -0.29,0 -0.58,0.06 -0.9,0.1 -0.42,-0.35 -0.64,-0.87 -0.64,-1.42 0,-0.58 0.23,-1.16 0.55,-1.64 0.42,-0.26 1.29,0 1.35,-0.68 0.03,0.06 0.06,0.1 0.13,0.1 0.1,0 0.16,-0.06 0.26,-0.06 0.1,0 0.16,0.13 0.16,0.19 3.57,-1.93 7.66,-2.54 11.53,-3.7 0.26,-0.26 0.64,-0.32 0.9,-0.58 0.16,0.1 0.35,0.13 0.52,0.13 0.58,0 1.35,-0.26 1.83,-0.58 0.16,0.03 0.32,0.03 0.45,0.03 0.8,0 1.58,-0.29 2.25,-0.71 h 0.16 c 1.29,0 2.58,-0.45 3.9,-0.45 0.8,0 1.58,0.19 2.25,0.68 v 0.39 c 0,0.29 0,0.58 0.13,0.87 -0.29,0.74 -1.61,0.35 -1.74,1.22 z"
   id="path177" />&#10;		<path
   d="m 312.66,603.23 c -0.13,0.03 -0.23,0.16 -0.23,0.32 -0.48,0.16 -1,0.23 -1.45,0.45 -0.48,-0.03 -0.93,-0.06 -1.42,-0.06 -1.26,0 -2.51,0.13 -3.77,0.06 -0.61,0.32 -1.32,0.55 -1.96,0.55 -0.23,0 -0.45,-0.03 -0.64,-0.1 -2,1.03 -4.99,1.06 -6.66,2.48 -0.06,0.58 -0.13,1.16 -0.13,1.71 0,0.55 0.06,1.06 0.26,1.58 0.23,0.06 0.48,0.13 0.71,0.13 0.19,0 0.45,-0.03 0.55,-0.26 0.61,-0.06 1.26,-0.03 1.87,-0.03 0.64,0 1.26,-0.03 1.83,-0.19 1.35,-0.35 2.51,-0.03 3.96,-0.68 0.55,0.19 1.13,0.16 1.67,0.23 0.29,0.19 0.51,0.45 0.51,0.8 0,0.58 -0.58,1.19 -0.84,1.67 h -0.35 c -2.03,0 -3.7,1.35 -5.73,1.35 -0.16,0 -0.16,0.26 -0.23,0.35 -0.16,-0.03 -0.32,-0.03 -0.48,-0.03 -0.93,0 -1.8,0.32 -2.74,0.32 -0.26,0 -0.48,-0.03 -0.74,-0.06 -0.19,0.32 -0.61,0.35 -0.9,0.58 -0.23,0.8 0.06,2.32 -0.45,2.93 0.03,0.23 0.45,-0.03 0.45,0.32 0,0.39 -0.1,0.8 -0.1,1.22 0,1.61 0.64,3.99 2.64,3.99 0.64,0 1.29,-0.26 1.64,-0.8 l 0.16,-0.03 c 0.16,0 0.32,0.06 0.48,0.06 0.48,0 1.71,-1.51 2.61,-1.83 0.29,-0.55 0.52,-1.22 1.03,-1.58 v -0.9 c 0.42,-0.45 0.97,-0.77 1.22,-1.35 0.19,0.06 0.42,0.13 0.61,0.13 0.22,0 0.45,-0.06 0.64,-0.13 0.32,0.48 0.48,1.06 0.77,1.58 -0.74,1.51 -2.09,4.44 -3.38,5.51 -0.1,0.1 -0.26,0.16 -0.39,0.23 -0.45,0.29 -0.87,0.61 -1.19,1.03 -1.22,0.35 -2.29,1.06 -3.38,1.67 -0.26,-0.06 -0.55,-0.1 -0.81,-0.1 -0.51,0 -1.03,0.1 -1.58,0.1 -0.16,-0.19 -0.64,-0.16 -0.55,-0.55 -2.83,-0.19 -3.35,-3.03 -4.19,-5.18 v -0.1 c 0,-0.19 0.26,-0.19 0.26,-0.39 0,-0.03 0,-0.06 -0.03,-0.1 -0.13,-0.42 -0.23,-0.74 -0.23,-1.19 0,-0.64 0.13,-1.32 0.13,-1.96 0,-0.29 -0.03,-0.61 -0.13,-0.9 0.39,-0.42 0.29,-1.45 0.45,-2.03 -0.16,-0.45 -0.32,-0.77 -0.32,-1.26 v -0.23 c 0.42,-0.71 0.68,-1.48 1,-2.25 v -0.1 c 0,-1.22 -0.13,-2.45 -0.13,-3.67 0,-0.39 0,-0.8 0.03,-1.19 0.32,-0.16 0.45,-0.51 0.77,-0.68 h 1.03 c 0.13,-0.19 0.29,-0.42 0.32,-0.68 0.48,-0.13 0.9,-0.39 1.29,-0.61 1.19,-0.71 1.83,-1.06 3.25,-1.19 0.29,-0.03 0.35,-0.16 0.55,-0.32 0.52,0.06 1,0.16 1.51,0.16 0.51,0 0.97,-0.1 1.42,-0.29 1.26,0 2.48,-0.06 3.74,-0.06 1.09,0 2.19,0.06 3.25,0.29 0.19,-0.06 0.42,-0.1 0.61,-0.1 0.52,0 1.03,0.16 1.55,0.1 0.03,0.42 0.32,0.71 0.32,1.13 v 0.13 z"
   id="path178" />&#10;	</g>&#10;</g>&#10;<g
   id="g180"
   transform="translate(-32.265858,-516.84856)">&#10;</g>&#10;<g
   id="g181"
   transform="translate(-32.265858,-516.84856)">&#10;</g>&#10;<g
   id="g182"
   transform="translate(-32.265858,-516.84856)">&#10;</g>&#10;<g
   id="g183"
   transform="translate(-32.265858,-516.84856)">&#10;</g>&#10;<g
   id="g184"
   transform="translate(-32.265858,-516.84856)">&#10;</g>&#10;<g
   id="g185"
   transform="translate(-32.265858,-516.84856)">&#10;</g>&#10;</svg>
